<?xml version="1.0" encoding="utf-8"?>
<!-- Generator: Adobe Illustrator 22.1.0, SVG Export Plug-In . SVG Version: 6.00 Build 0)  -->
<svg version="1.1" id="Layer_1" xmlns="http://www.w3.org/2000/svg"
	xmlns:xlink="http://www.w3.org/1999/xlink" x="0px" y="0px" width="20" height="20"
	viewBox="0 0 300 300" style="enable-background:new 0 0 300 300;" xml:space="preserve">
<g>
	<path d="M227.6,244.8c0,18,0,35.8,0,54c-3.6-2.4-6.9-4.5-10.1-6.7c-12.6-8.4-25.2-16.8-37.9-25.2c-10.6-7.1-21.2-14.1-31.8-21.1
		c-0.9-0.6-2.2-0.9-3.3-0.9c-35.1,0-70.2,0-105.3,0c-16.2,0-30.2-11.9-32.8-27.9C6.1,215,6,213.1,6,211.2C6,152.4,6,93.5,6,34.7
		C6,18,18.5,3.7,35,1.5c1.5-0.2,3-0.3,4.5-0.3c73.6,0,147.1,0,220.7,0c16,0,29.2,10.3,32.9,25.9c0.6,2.4,0.9,4.9,0.9,7.4
		c0,59.1,0,118.1,0,177.2c0,18.3-14.9,33.1-33.3,33.1c-10.2,0-20.5,0-30.7,0C229.3,244.8,228.6,244.8,227.6,244.8z M205.4,222.7
		c0.9,0,1.6,0,2.3,0c17.5,0,35,0,52.6,0c6.9,0,11.4-4.6,11.4-11.4c0-58.8,0-117.6,0-176.4c0-7-4.4-11.4-11.4-11.4
		c-73.5,0-147,0-220.5,0c-7.2,0-11.6,4.5-11.6,11.6c0,58.7,0,117.3,0,176c0,1.2,0.1,2.4,0.4,3.5c1.4,5.2,5.5,8.1,11.3,8.1
		c37.1,0,74.1,0,111.2,0.1c1.3,0,2.8,0.5,3.9,1.2c16.2,10.7,32.4,21.5,48.6,32.3c0.5,0.3,0.9,0.5,1.7,1
		C205.4,245.5,205.4,234.2,205.4,222.7z"/>
	<path d="M72.6,67.7c51.7,0,103.2,0,154.9,0c0,7.3,0,14.7,0,22.1c-51.6,0-103.2,0-154.9,0C72.6,82.4,72.6,75.1,72.6,67.7z"/>
	<path d="M72.6,134c0-7.3,0-14.5,0-21.8c51.7,0,103.2,0,154.9,0c0,7.3,0,14.4,0,21.8C175.9,134,124.4,134,72.6,134z"/>
	<path d="M72.6,178.3c0-7.4,0-14.6,0-21.9c29.5,0,58.9,0,88.4,0c0,7.3,0,14.5,0,21.9C131.6,178.3,102.2,178.3,72.6,178.3z"/>
</g>
</svg>