<svg xmlns="http://www.w3.org/2000/svg" version="1.1" xmlns:xlink="http://www.w3.org/1999/xlink"
    width="512" height="512" x="0" y="0" viewBox="0 0 64 64"
    style="enable-background:new 0 0 512 512" xml:space="preserve" class=""><g><path d="M40 28.067a2.002 2.002 0 0 0-2-2h-.59l-4.708-4.645a1 1 0 0 0-1.404 0l-4.708 4.645H26a2.002 2.002 0 0 0-2 2v7.131l-8.217 1.826A1 1 0 0 0 15 38v12.732A36.059 36.059 0 0 0 2.18 62.029l1.64 1.145a34.045 34.045 0 0 1 2.34-2.97l4.494 2.29a1 1 0 0 0 1.047-.087l4.103-3.02 1.403 1.824a1 1 0 0 0 1.348.223l2.748-1.832h3.424a1 1 0 0 0 .928-1.371L24 54.092l2.44-1.194a1 1 0 0 0 .53-.655l.852-3.41a33.287 33.287 0 0 1 11.148.564l-3.417 1.708a1.004 1.004 0 0 0-.385.34l-2 3a1 1 0 0 0 .186 1.318l4.726 4a1.022 1.022 0 0 0 .726.234l4.623-.368 3.698 2.773a.995.995 0 0 0 .6.2 1.008 1.008 0 0 0 .316-.051l8.738-2.913a34.158 34.158 0 0 1 3.117 3.923l1.657-1.121A36.041 36.041 0 0 0 49 51.026V38a1 1 0 0 0-.783-.976L40 35.198zm-8-4.528 2.563 2.528h-5.126zM17 38.802l7-1.555v10.212a36.02 36.02 0 0 0-7 2.298zm8.143 12.504-2.856 1.398a1 1 0 0 0-.49 1.27l1.453 3.628H21a1 1 0 0 0-.555.168l-2.221 1.481-1.431-1.86a1 1 0 0 0-1.386-.196l-4.394 3.236-3.435-1.75A34.067 34.067 0 0 1 16.956 52H17v-.021a34.002 34.002 0 0 1 8.682-2.831zM34 46.675q-1.131-.071-2.273-.073c-.578 0-1.153.025-1.727.053v-2.722h4zm4 .485a35.929 35.929 0 0 0-2-.3v-3.927a1 1 0 0 0-1-1h-6a1 1 0 0 0-1 1v3.877q-1.006.105-2 .267v-19.01h12zm17.225 10.888-7.318 2.44-3.58-2.686a1.013 1.013 0 0 0-.68-.197l-4.59.365-3.73-3.158 1.358-2.036 5.226-2.613a33.975 33.975 0 0 1 13.314 7.885zM47 38.802V50.01a35.93 35.93 0 0 0-7-2.435V37.247z" fill="#000000" data-original="#000000"></path><path d="M28 30h8v2h-8zM28 34h8v2h-8zM28 38h8v2h-8zM18 40h5v2h-5zM41 40h5v2h-5zM18 44h5v2h-5zM41 44h5v2h-5zM25 10.78c0 3.602 4.522 6.84 6.467 8.066a1.001 1.001 0 0 0 1.066 0C34.478 17.621 39 14.382 39 10.78a3.613 3.613 0 0 0-2.885-3.66A4.631 4.631 0 0 0 32 8.17a4.632 4.632 0 0 0-4.115-1.05A3.613 3.613 0 0 0 25 10.78zm3.346-1.714A2.473 2.473 0 0 1 28.913 9a2.42 2.42 0 0 1 2.193 1.258 1.041 1.041 0 0 0 1.788 0 2.486 2.486 0 0 1 2.76-1.193A1.64 1.64 0 0 1 37 10.78c0 1.984-2.584 4.405-5 6.027-2.416-1.622-5-4.043-5-6.027a1.64 1.64 0 0 1 1.346-1.714zM41 10h3v2h-3zM20 10h3v2h-3zM22.803 4.222l1.414-1.414 2.12 2.12-1.413 1.415zM37.653 4.933l2.121-2.12 1.414 1.413-2.12 2.121zM31 1h2v3h-2zM9 34a8 8 0 1 0-8-8 8.01 8.01 0 0 0 8 8zm2-2.35a5.889 5.889 0 0 1-4 0V29a1.001 1.001 0 0 1 1-1h2a1.001 1.001 0 0 1 1 1zM8 25a1 1 0 1 1 1 1 1.001 1.001 0 0 1-1-1zm1-5a5.991 5.991 0 0 1 4 10.46V29a2.993 2.993 0 0 0-1.401-2.53A2.963 2.963 0 0 0 12 25a3 3 0 0 0-6 0 2.964 2.964 0 0 0 .401 1.47A2.993 2.993 0 0 0 5 29v1.46A5.991 5.991 0 0 1 9 20zM52.766 34a.966.966 0 0 0 .098-.005c.264-.026 6.488-.685 8.985-4.642 2.52-3.994.134-9.522.032-9.756a.985.985 0 0 0-1.014-.592c-.263.026-6.487.685-8.984 4.642-2.52 3.994-.135 9.522-.032 9.756a1 1 0 0 0 .915.597zm7.391-5.715c-1.184 1.877-3.616 2.833-5.39 3.304a56.837 56.837 0 0 1 3.53-6.033c.27-.403 1.41-2.018 2.337-3.324.416 1.675.714 4.166-.477 6.053zm-6.583-3.57c1.129-1.79 3.395-2.743 5.143-3.236a238.95 238.95 0 0 0-2.081 2.964 58.918 58.918 0 0 0-3.591 6.12c-.387-1.67-.612-4.04.53-5.848z" fill="#000000" data-original="#000000"></path></g></svg>