<?xml version="1.0" encoding="utf-8"?>
<!-- Generator: Adobe Illustrator 22.1.0, SVG Export Plug-In . SVG Version: 6.00 Build 0)  -->
<svg version="1.1" id="Layer_1" xmlns="http://www.w3.org/2000/svg"
	xmlns:xlink="http://www.w3.org/1999/xlink" x="0px" y="0px" width="20" height="20"
	viewBox="0 0 300 300" style="enable-background:new 0 0 300 300;" xml:space="preserve">
<g>
	<path d="M185.7,126.4c1.3-13.2,12.5-20.9,23.8-20.7c22.3,0.5,44.5,0.1,66.8,0.2c12.9,0,22.7,9.6,22.7,22.5c0,43.5,0,86.9,0,130.4
		c0,12.7-9.7,22.6-22.4,22.7c-22.9,0.1-45.7,0.1-68.6,0c-10.4,0-19.2-6.9-21.6-16.9c-0.7-3-1.6-2.5-3.5-1.3
		c-5.4,3.3-11.1,5.8-17.6,5.8c-37.5,0-75,0-112.5,0c-5.4,0-10.1-1.9-14-5.6c-7.7-7.4-11.9-16.6-13.3-27c-0.3-2.5-1-4.6-3.1-6.3
		c-2.9-2.4-4.8-5.6-6.3-9.1c-3.3-7.3-4.2-15-4.1-22.9c0-1.4,0.2-2.9-0.8-4.2c-7.6-9.4-8.9-20.1-5.9-31.5c0.3-1.3,0.3-2.4-0.3-3.7
		c-3.4-6.6-4.1-13.8-4-21.1c0-4.2,1.1-8.4,3.6-11.9c8.5-12.2,20.3-19.2,35.1-19.8c16.3-0.6,32.6-0.2,48.9-0.1c2.4,0,3.3-0.3,2.7-3.1
		c-2.8-13.4-3.8-26.9-1.3-40.4c2.6-14.2,8.1-27,19.8-36.2c7.9-6.3,16.8-9.7,27-6.4c8,2.6,12.1,8.2,12.1,16.5
		c0,6.2,0.2,12.3-0.1,18.5c-0.4,7.5,1,14.4,3.7,21.4c5.4,13.6,11,27.2,19.7,39.1c3.7,5,7.7,9.8,12.8,13.5
		C185.8,127.9,185.6,127.1,185.7,126.4z M163.7,255.9c8.7,0,14.9-5,20.8-10.6c0.9-0.9,1-2.1,1-3.3c0-31.4,0-62.9,0-94.3
		c0-1.4-0.3-2.4-1.6-3.2c-17.3-11.3-27.9-27.8-36.4-46c-4-8.6-7.3-17.5-10.5-26.4c-1-2.7-1.4-5.4-1.4-8.3c0.1-8.8,0-17.6,0-26.4
		c0-3.9-1.4-5.4-5.4-5.6c-6-0.3-10.7,2.7-14.8,6.7c-6.9,6.8-10.6,15.4-12.3,24.8c-2.7,14.9-1.1,29.5,2.6,44c0.3,1,0.6,2.1,0.8,3.1
		c0.8,4.4-1.2,7.4-5.7,8.2c-1.4,0.3-2.9,0.3-4.4,0.3c-18.6,0-37.1,0-55.7,0c-9.5,0-16.9,4.8-23.3,11.2c-3.3,3.3-3.8,7.6-3.3,12
		c0.2,2,0.5,4.1,0.8,6.1c0.3,2.2,0.9,3.9,3,5.3c2.8,1.8,3.1,5,1.4,8.6c-2.5,5.1-2.9,10.5-1.7,16c0.7,3.2,2.2,6.1,4.7,8.3
		c2.2,2,3.1,4.3,3,7.3c-0.2,5.7-0.3,11.3,1.1,16.9c1.4,5.2,3.7,9.7,8.5,12.5c2.7,1.6,3.4,4,3.3,7c-0.2,7.9,2.6,14.9,7.2,21.2
		c2.4,3.2,5.4,4.7,9.6,4.6c18.2-0.1,36.3-0.1,54.5-0.1C127.6,255.9,145.7,255.9,163.7,255.9z M285.8,129.6c0-7.2-3.4-10.6-10.6-10.6
		c-22,0-43.9,0-65.9,0c-7,0-10.4,3.5-10.4,10.5c0,42.6,0,85.2,0,127.7c0,7.4,3.5,11,10.9,11c21.6,0,43.2,0,64.8,0
		c7.9,0,11.3-3.3,11.3-11.1c0-21.2,0-42.4,0-63.6C285.8,172.2,285.8,150.9,285.8,129.6z"/>
</g>
</svg>