<?xml version="1.0" encoding="utf-8"?>
<!-- Generator: Adobe Illustrator 22.1.0, SVG Export Plug-In . SVG Version: 6.00 Build 0)  -->
<svg version="1.1" id="Layer_1" xmlns="http://www.w3.org/2000/svg" xmlns:xlink="http://www.w3.org/1999/xlink" x="0px" y="0px"
	 viewBox="0 0 500 185" style="enable-background:new 0 0 500 185;" xml:space="preserve">
<style type="text/css">
	.st0{fill:url(#SVGID_1_);}
	.st1{fill:url(#SVGID_2_);}
	.st2{fill:url(#SVGID_3_);}
	.st3{fill:#FFFFFF;}
	.st4{fill:url(#SVGID_4_);}
	.st5{fill:url(#SVGID_5_);}
</style>
<g>
	<g>
		<g>
			<path d="M147,143.2l-20-28.6c-0.8,0.1-2.1,0.1-3.8,0.1h-22.1v28.5H83V45.5h40.2c8.5,0,15.9,1.4,22.1,4.2
				c6.3,2.8,11.1,6.8,14.5,12c3.4,5.2,5,11.4,5,18.6c0,7.4-1.8,13.7-5.4,19c-3.6,5.3-8.7,9.3-15.4,11.9l22.5,32.1H147z M140.4,65.9
				c-4.1-3.4-10.1-5-18-5h-21.2v39h21.2c7.9,0,13.9-1.7,18-5.1c4.1-3.4,6.1-8.2,6.1-14.5C146.6,74,144.5,69.2,140.4,65.9z"/>
			<path d="M374.8,120.6h-48.9l-9.6,22.6h-18.7l44-97.8h17.9l44.1,97.8h-19L374.8,120.6z M368.8,106.4l-18.4-42.7L332,106.4H368.8z"
				/>
			<path d="M474.4,143.2l-20-28.6c-0.8,0.1-2.1,0.1-3.8,0.1h-22.1v28.5h-18.2V45.5h40.2c8.5,0,15.9,1.4,22.1,4.2
				c6.3,2.8,11.1,6.8,14.5,12c3.4,5.2,5,11.4,5,18.6c0,7.4-1.8,13.7-5.4,19c-3.6,5.3-8.7,9.3-15.4,11.9l22.5,32.1H474.4z
				 M467.8,65.9c-4.1-3.4-10.1-5-18-5h-21.2v39h21.2c7.9,0,13.9-1.7,18-5.1c4.1-3.4,6.1-8.2,6.1-14.5C474,74,471.9,69.2,467.8,65.9z
				"/>
		</g>
		<g>
			<linearGradient id="SVGID_1_" gradientUnits="userSpaceOnUse" x1="67.1314" y1="131.6847" x2="13.2568" y2="38.3711">
				<stop  offset="0" style="stop-color:#F8B131"/>
				<stop  offset="1" style="stop-color:#EC5965"/>
			</linearGradient>
			<path class="st0" d="M8.7,165.4C24.8,147.8,86.6,48.9,89.3,35.3C74,58.4,58.7,81.4,42.6,105.6c-1.9-20.7-3.7-40.2-5.5-59.6
				C26,46,15.9,46,5.4,46c0,0,0,0,0,0H0l6.4,9.7c3.9,29.1,7.8,58.2,11.5,87.3c0.3,2.7-0.6,5.8-1.8,8.4
				C14,156.2,11.2,160.8,8.7,165.4z"/>
			<linearGradient id="SVGID_2_" gradientUnits="userSpaceOnUse" x1="94.9462" y1="136.2473" x2="44.3266" y2="48.5716">
				<stop  offset="0" style="stop-color:#F8B131"/>
				<stop  offset="1" style="stop-color:#EC5965"/>
			</linearGradient>
			<path class="st1" d="M12.4,183.9c41.4-59,79.6-120,114.5-183C85.5,59.9,47.3,120.9,12.4,183.9z"/>
			<linearGradient id="SVGID_3_" gradientUnits="userSpaceOnUse" x1="103.0907" y1="120.4427" x2="66.6359" y2="57.3013">
				<stop  offset="0" style="stop-color:#F8B131"/>
				<stop  offset="1" style="stop-color:#EC5965"/>
			</linearGradient>
			<path class="st2" d="M125.7,23.2c-30.3,42.5-57.6,86-81.7,131.4C57.8,140.6,124.3,33.6,125.7,23.2z"/>
		</g>
		<g>
			<path class="st3" d="M193.2,82.6l2.7-17.4l8-5.8l6.3-10.4l9.4-1.2l9.9-1.4h21.2l20.5,8.2l6,5.1L281,68l1.9,9.2
				c0,0,1.2,5.5,1.2,6.5c0,1-1.4,18.6-1.7,19.5c-0.2,1-7,14.7-7,14.7s-6.5,7-7,8.4c-0.5,1.4-10.9,21.7-10.9,21.7l-8.1,4.1l-18.6,0.1
				l-9.7-4.8l-2.5-6.9l-25.4-27.1v-13.2l-1.1-11L193.2,82.6z"/>
			<g id="ShoSho_5_">
				
					<linearGradient id="SVGID_4_" gradientUnits="userSpaceOnUse" x1="239.8801" y1="33.8696" x2="239.8801" y2="153.7848" gradientTransform="matrix(1 0 0 -1 0 186)">
					<stop  offset="0" style="stop-color:#F8B131"/>
					<stop  offset="1" style="stop-color:#EC5965"/>
				</linearGradient>
				<path class="st4" d="M257.3,34.2c-3.4,2.5-7.5,4.2-10.3,7.3c0.2,0.4,0.8,0.3,0.7-0.3c3.8-0.9,7.7-2.9,11.9-3.9
					c0.3-0.1,0.9-0.2,1.3-0.3c3.6-0.7,6,0.3,9.6,1.9c5,2.2,10.1,5.5,13.7,9.2c-3.7,0.9-7.4,1.8-10.3,3.5c4.8,0.2,9.7,0.3,15.4,0.9
					c5.6,5.5,10.5,12.4,13.1,20.5c-3.7-1.2-6.4-2.5-10.8-2.9c3.2,2.6,7,4.8,10.5,7.7c0.8,0.6,2,1.3,2.5,1.9c0.9,1.1,1.3,5.2,1.5,7.3
					c0.4,5.1-0.1,11.6-1,16.1c-3-2-5.3-4.7-9.3-5.8c2.7,3.9,5.3,8.4,7.3,13.2c-0.8,3.2-1.9,6.1-3.6,8.3c-1.3,3.1-3,5.9-5.2,8
					c-1.6-2.3-3.2-4.7-5.5-6.4c-0.1,3.2,3.1,7.3,1.9,11c-0.4,1.2-2.6,2.4-3.8,3.6c-1.4,1.5-3.4,3.4-5.4,4.4c-0.4-3.2-0.3-6.4-1.5-9
					c-1.3,4.2-2,8.9-3.6,12.8c-2.7,1.4-5.5,3.4-8.6,3.9c0.6-3.7,1.2-6.8,1.2-10c-2,3.5-4.2,7.8-6.7,11c-1.3,1.7-1.5,1.8-4.1,2.5
					c-2.8,0.8-5.8,1.9-8.7,1.7c0.5-1.1,1.3-0.9,1.9-1.3c4.2-2.8,8.1-7.2,7.1-13.9c-0.3-2.2-0.7-5.9-1.3-8.1
					c-0.2-0.8-0.7-1.3-0.6-1.9c0.2-1.3,2-3,2.6-4.1c0.9-1.5,1.6-3.7,2.6-5.4c1-1.6,2.2-2.7,4.1-0.9c0.8-2.3,0.6-5.9,0.7-9.4
					c1.3,0.3,2.2,1.1,3.6,1.5c0.9-2.8,1.2-6,1.5-8.4c1.2,0.4,2.1,1.1,3.3,1.6c1.1-2.1,0.6-5,1-7.4c1.3,0.3,2.3,0.9,3.3,1.5
					c-0.5-4.3-2.4-8.1-2.8-12.1c1.3,0.2,2.2,0.9,3.2,1.3c-2.6-8-6.6-15.1-16.6-15.3c-5.2-0.1-9.8-1.5-11.2-6.5
					c2.9-1.5,4.4-4.5,8.9-4.1c-0.6,2-2.9,2.2-3.9,3.8c2.1,0.7,4.2,0,6.1,0.3c3,0.5,5.4,3,7.6,4.8c2,1.7,3.8,3.5,5.5,5.1
					c-1.3-12-12.8-17.9-23.5-20.5c-3.7-0.9-8.8,2.6-13.2,2.8c-1-0.5-4.8-1.9-7-2.5c-4.6-1.2-7.9,0.5-12.1,2.2
					c-3.8,1.5-7.6,3.2-10.5,6.1c-2.3,2.4-5.1,7.7-5.5,11.6c1,0.1,1.2-1.1,1.7-1.7c1.9-2.1,5-4.5,7.7-6.1c1.1-0.7,2-1.6,3.3-1.7
					c1.9-0.2,4.5,0.4,6.7-0.1c-0.7-1.8-3.4-1.7-4.1-3.6c2.6-0.8,4.6,0.7,6.7,2.2c0.5,0.4,2,1.6,2,2c0.1,1-1.2,1.5-1.2,2.5
					c-2.1,2.3-5.6,3.5-9.4,3.6c-7.3,0.3-11.6,3.5-14.8,8.6c-0.3,2.2-1.9,4-2.5,6.4c1.4-0.1,1.9-1.1,3.2-1.3c-0.5,4-2.2,7.9-3.1,12.1
					c1.8,0.1,1.6-1.1,3.3-1.3c0.3,2.2,0.4,4.8,0.6,7.4c1.3-0.1,2.1-0.7,3.1-1.2c1.7,1.5,1.1,5.6,1.9,8.1c1.5-0.2,2.4-0.9,3.5-1.5
					c0.7,2.7,0.4,6.4,0.9,9.3c2-0.6,2.6-1.7,3.8,0.6c1.3,2.5,4.3,6.6,5.5,9.2c0.6,1.2,0,1.4-0.3,2.5c-0.8,2.8-1.7,6.7-1.6,9.7
					c0.2,7.7,4.2,10.6,9.4,13.9c-3.2-0.2-5.2-0.9-7.8-1.6c-2.9-0.7-4.3-0.8-5.8-2.9c-0.8-1.2-1.1-2.8-2.5-3.5
					c-0.8-1.9-1.4-4-2.9-5.2c0-0.8-0.3-1.5-0.6-2c-0.8,3.4,0.4,6.3,0.7,10.3c-2.9-1.7-5.7-2.5-8.3-4.4c-1.5-3.6-3.1-8.9-3.5-12.9
					c-1.6,2.2-1.5,6.2-1.9,9c-3.6-1.7-5.7-4.8-8.7-7.1c-1-3.7,0.6-8.6,2-11.9c-1.2,0.8-2.2,1.3-3.3,2.6c-1.5,1.7-2.2,5.5-4.4,2.3
					c-1.6-2.4-2.9-4.3-4.1-6.7c-0.3-0.6-0.3-1.5-0.7-2.2c-0.6-1-2.3-4.2-2.2-5.7c0.1-0.8,0.8-1.5,1-2.2c1.6-4.6,4-8.2,6.5-11.3
					c-4,1.1-6.6,3.5-9.4,5.8c-1.7-4.3-1.4-9.7-1-14.7c0.3-3.7,0.4-8,3.1-10c3.6-2.8,8-5.7,12.1-8.1c-4.1-0.2-7.6,1.7-11.5,2.9
					c2.8-8.3,7.7-14.6,12.9-20.5c4.2-0.5,9.8-0.6,14.1-1c0.5,0.3,1.3,0.7,2,0.3c-3.1-1.9-6.9-2.6-10.8-3.6c5-5.2,12.3-8.3,19.2-11.6
					c7.1,1.1,13.2,3.1,18.9,5.5c-2.7-3.5-7.3-5.1-10.9-7.7C233.2,31.6,247.6,31.5,257.3,34.2z"/>
				
					<linearGradient id="SVGID_5_" gradientUnits="userSpaceOnUse" x1="240.2037" y1="45.879" x2="240.2037" y2="117.289" gradientTransform="matrix(1 0 0 -1 0 186)">
					<stop  offset="0" style="stop-color:#F8B131"/>
					<stop  offset="1" style="stop-color:#EC5965"/>
				</linearGradient>
				<path class="st5" d="M258.6,77.7c-2.6-0.4-4.8-2.7-7.8-2.5c-2.9,0.2-5.4,2.1-7.8,3.1c-0.7,3.1,1.7,4.4,4.1,5.1
					c1.7,0.5,3.7,1,5.8,1.9c4.3,1.8,11.7,2.7,9.9,9.3c-0.2,0.8-0.6,1.7-0.9,2.5c-2,5.8-4,11.4-6,17.3c-0.8,2.5-2.4,5.1-2.6,7
					c-0.1,1.1,0.2,2.6,0.3,3.9c0.4,5.7,2.9,12.2-2.8,13.8c-3.6,1-7.8,1.3-11.5,1.2c-2.3-0.1-5.8-0.3-8.7-0.9
					c-4.7-0.9-5.8-3.6-5.1-8.7c0.1-1,0.6-2.1,0.7-3.2c0.1-0.9-0.1-2.1,0-3.1c0.2-1.1,0.7-1.8,0.6-2.8c-0.1-1.5-1.3-3.4-1.9-5.2
					c-2.7-8.1-5.4-15.3-7.7-23.8c0.4-4.8,5.8-5.3,10.6-7.3c3.1-1.3,7.1-2.2,9.7-4.1c0-1.4,0.3-2,0-3.3c-2.8-0.4-5.1-2.6-8-2.8
					c-3-0.2-4.9,2.2-7.8,2.6c0.4-3.2,3.2-4.8,6.1-6.5c1.3-0.8,3.4-2.1,4.5-2.3c3-0.5,5.9,1.1,8.4,1c2.9-0.1,5.9-1.9,8.6-0.7
					c3.6,1.6,7.2,4.9,9.3,7C258.6,76.6,258.6,77.2,258.6,77.7z M222.5,90.6c-0.8,5.5,0.4,10.9,2.3,15.3c0.3,0.6,0.1,1.6,1.2,1.5
					c0.1-5.4,0.4-9.8,1.9-15.5C226.4,90.8,224.7,90.5,222.5,90.6z M252.8,91.9c1.3,4.5,1.5,9.8,1.7,15.3c2.5-2,2.8-6.7,3.9-10.6
					c-0.3-1.8-0.1-3.6-0.1-6C256.6,90.3,254.2,90.6,252.8,91.9z M230.2,91.1c-0.4,1.9-0.8,5.2,0.4,6.5
					C233.1,96.1,235.1,91.4,230.2,91.1z M250.3,97.6c0.6-1.9,0.5-3.9,0.6-6.4C246.2,90.6,247.5,96.7,250.3,97.6z M235,93.2
					c-0.3,0.7-0.6,1.6-1,2.2c0.4,0.7,0.8,1.4,1.5,1.9c0.9-0.4,1.7-0.9,2-1.9c-0.8-0.4-0.4-1.9-1.2-2.3
					C235.9,93.4,235.4,92.9,235,93.2z M241,93.1c-1.3-0.4-1.2,0.6-1.6,1.6c-0.5,1.3,0,1.8,0.9,2.6C242.8,97.4,242.6,93.6,241,93.1z
					 M243.6,95.7c1.1,3.4,4.7-0.1,2.5-2.5C244.1,92.9,244.1,94.5,243.6,95.7z M240.8,106.5c-2.8-0.8-6.4-1.3-9-1.9
					c-0.9,2.2-1,4.5-1.6,7c-0.5,2.2-1.8,4.7-1.7,6.8c0.1,4.4,6.7,7.2,11.3,7.4c6.3,0.3,14.3-4,11.8-9.9c-0.2-2.9-1.4-7.5-2.6-11.2
					C246.1,105.3,242.9,105.7,240.8,106.5z M231.5,136.6c2.4,0.3,4-1.9,3.8-3.3c-0.2-1.2-2.2-2.7-3.1-4.1c-1.1-1.7-1.2-3.5-2.5-4.2
					c-0.1,0-0.2,0-0.3,0C228.6,129.4,229.2,133.5,231.5,136.6z M250.3,125.1c-1.2,1.7-1.9,4-3.1,5.7c-0.5,0.7-1.4,1.1-1.7,1.7
					c-0.7,1.2,0,3.5,1.3,4.1c2.9,1.3,4.4-3.6,4.5-6c0.1-1.8-0.3-3.5,0-5.2C250.9,125.4,250.9,125,250.3,125.1z"/>
			</g>
		</g>
	</g>
	<g>
		<path d="M200.6,183.7h-5.1v-22.1h16.7v4.1h-11.6V183.7z M200.2,171.6h10.6v4.1h-10.6V171.6z"/>
		<path d="M228.7,184.1c-3.1,0-5.6-0.9-7.4-2.6c-1.8-1.7-2.7-4.2-2.7-7.5v-12.4h5.1v12.2c0,2.1,0.4,3.6,1.3,4.6
			c0.9,0.9,2.1,1.4,3.6,1.4c1.6,0,2.8-0.5,3.6-1.4c0.9-0.9,1.3-2.4,1.3-4.6v-12.2h5.1V174c0,3.2-0.9,5.7-2.7,7.5
			S231.8,184.1,228.7,184.1z"/>
		<path d="M251.1,183.7v-18H244v-4.2h19.3v4.2h-7.1v18H251.1z"/>
		<path d="M278.7,184.1c-3.1,0-5.6-0.9-7.4-2.6c-1.8-1.7-2.7-4.2-2.7-7.5v-12.4h5.1v12.2c0,2.1,0.4,3.6,1.3,4.6
			c0.9,0.9,2.1,1.4,3.6,1.4c1.6,0,2.8-0.5,3.6-1.4c0.9-0.9,1.3-2.4,1.3-4.6v-12.2h5.1V174c0,3.2-0.9,5.7-2.7,7.5
			C284.3,183.2,281.8,184.1,278.7,184.1z"/>
		<path d="M296.9,183.7v-22.1h9.6c2,0,3.7,0.3,5.1,1c1.4,0.6,2.5,1.6,3.3,2.8c0.8,1.2,1.2,2.6,1.2,4.3c0,1.6-0.4,3.1-1.2,4.3
			c-0.8,1.2-1.9,2.1-3.3,2.7c-1.4,0.6-3.1,0.9-5.1,0.9h-6.7l2.3-2.2v8.4H296.9z M302,175.9l-2.3-2.4h6.4c1.6,0,2.8-0.3,3.5-1
			c0.8-0.7,1.2-1.6,1.2-2.8c0-1.2-0.4-2.2-1.2-2.8c-0.8-0.7-2-1-3.5-1h-6.4l2.3-2.4V175.9z M311,183.7l-5.5-8h5.5l5.6,8H311z"/>
		<path d="M328.4,179.6h12v4.1h-17.1v-22.1H340v4.1h-11.6V179.6z M328,170.5h10.7v4H328V170.5z"/>
		<path d="M359.8,183.7v-22.1h5.1v22.1H359.8z"/>
		<path d="M380.6,184.1c-1.8,0-3.5-0.2-5.1-0.7c-1.6-0.5-2.9-1.1-3.9-1.8l1.7-3.9c0.9,0.7,2.1,1.2,3.4,1.7c1.3,0.4,2.6,0.6,3.9,0.6
			c1,0,1.8-0.1,2.4-0.3c0.6-0.2,1.1-0.5,1.4-0.8c0.3-0.4,0.4-0.8,0.4-1.2c0-0.6-0.2-1.1-0.7-1.4c-0.5-0.3-1.1-0.6-1.8-0.9
			c-0.8-0.2-1.6-0.4-2.5-0.6c-0.9-0.2-1.8-0.4-2.8-0.7c-0.9-0.3-1.8-0.7-2.5-1.1c-0.8-0.5-1.4-1.1-1.8-1.8c-0.5-0.8-0.7-1.7-0.7-2.9
			c0-1.3,0.3-2.4,1-3.5c0.7-1,1.7-1.9,3.1-2.5c1.4-0.6,3.1-0.9,5.2-0.9c1.4,0,2.8,0.2,4.1,0.5c1.3,0.3,2.5,0.8,3.6,1.5l-1.6,3.9
			c-1-0.6-2.1-1-3.1-1.3c-1-0.3-2-0.4-3-0.4c-1,0-1.8,0.1-2.4,0.3c-0.6,0.2-1.1,0.5-1.4,0.9c-0.3,0.4-0.4,0.8-0.4,1.3
			c0,0.6,0.2,1,0.7,1.4c0.5,0.3,1.1,0.6,1.8,0.8c0.8,0.2,1.6,0.4,2.5,0.6c0.9,0.2,1.8,0.5,2.8,0.7s1.8,0.6,2.5,1.1
			c0.8,0.5,1.4,1.1,1.8,1.8c0.5,0.8,0.7,1.7,0.7,2.9c0,1.2-0.3,2.4-1,3.4c-0.7,1-1.7,1.9-3.1,2.5
			C384.4,183.8,382.7,184.1,380.6,184.1z"/>
		<path d="M408.7,183.7v-22.1h4.2l13.1,15.9H424v-15.9h5.1v22.1h-4.2l-13.1-15.9h2.1v15.9H408.7z"/>
		<path d="M448.2,184.1c-1.7,0-3.4-0.3-4.9-0.9c-1.5-0.6-2.8-1.4-3.9-2.4c-1.1-1-1.9-2.2-2.5-3.6c-0.6-1.4-0.9-2.9-0.9-4.6
			c0-1.6,0.3-3.2,0.9-4.6c0.6-1.4,1.4-2.6,2.5-3.6c1.1-1,2.4-1.8,3.9-2.4s3.1-0.9,4.8-0.9c1.7,0,3.4,0.3,4.8,0.9
			c1.5,0.6,2.7,1.4,3.8,2.4c1.1,1,1.9,2.2,2.5,3.6c0.6,1.4,0.9,2.9,0.9,4.6c0,1.6-0.3,3.2-0.9,4.6c-0.6,1.4-1.5,2.6-2.5,3.6
			c-1.1,1-2.4,1.8-3.8,2.4C451.5,183.8,449.9,184.1,448.2,184.1z M448.2,179.7c1,0,1.9-0.2,2.7-0.5c0.8-0.3,1.6-0.8,2.2-1.5
			c0.6-0.6,1.1-1.4,1.5-2.2c0.3-0.9,0.5-1.8,0.5-2.9c0-1.1-0.2-2-0.5-2.9c-0.3-0.9-0.8-1.6-1.5-2.2c-0.6-0.6-1.4-1.1-2.2-1.5
			c-0.8-0.3-1.8-0.5-2.7-0.5c-1,0-1.9,0.2-2.7,0.5c-0.8,0.3-1.6,0.8-2.2,1.5c-0.6,0.6-1.1,1.4-1.5,2.2c-0.3,0.9-0.5,1.8-0.5,2.9
			c0,1,0.2,2,0.5,2.9c0.3,0.9,0.8,1.6,1.5,2.3c0.6,0.6,1.4,1.1,2.2,1.5C446.3,179.6,447.2,179.7,448.2,179.7z"/>
		<path d="M471.9,183.7l-7.2-22.1h5.3l6.3,19.6h-2.7l6.6-19.6h4.7l6.3,19.6h-2.6l6.4-19.6h4.9l-7.2,22.1h-5.5l-5.6-17.2h1.5
			l-5.8,17.2H471.9z"/>
	</g>
</g>
</svg>
