<?xml version="1.0" encoding="utf-8"?>
<!-- Generator: Adobe Illustrator 22.1.0, SVG Export Plug-In . SVG Version: 6.00 Build 0)  -->
<svg version="1.1" id="Layer_1" xmlns="http://www.w3.org/2000/svg" xmlns:xlink="http://www.w3.org/1999/xlink" x="0px" y="0px"
	 width="100" height="100" viewBox="0 0 502 455.5" style="enable-background:new 0 0 502 455.5;" xml:space="preserve">
<style type="text/css">
	.st0{fill:#FFFFFF;}
	.st1{fill:url(#SVGID_1_);}
	.st2{fill:url(#SVGID_2_);}
	.st3{fill:url(#SVGID_3_);}
	.st4{fill:url(#SVGID_4_);}
	.st5{fill:url(#SVGID_5_);}
	.st6{fill:url(#SVGID_6_);}
	.st7{fill:url(#SVGID_7_);}
	.st8{fill:url(#SVGID_8_);}
	.st9{fill:url(#SVGID_9_);}
	.st10{fill:url(#SVGID_10_);}
	.st11{fill:url(#SVGID_11_);}
	.st12{fill:url(#SVGID_12_);}
	.st13{fill:url(#SVGID_13_);}
	.st14{fill:url(#SVGID_14_);}
	.st15{fill:url(#SVGID_15_);}
	.st16{fill:url(#SVGID_16_);}
	.st17{fill:url(#SVGID_17_);}
	.st18{fill:url(#SVGID_18_);}
	.st19{fill:url(#SVGID_19_);}
	.st20{fill:url(#SVGID_20_);}
	.st21{fill:url(#SVGID_21_);}
	.st22{fill:url(#SVGID_22_);}
	.st23{fill:none;stroke:#000000;stroke-width:2;stroke-miterlimit:10;}
	.st24{clip-path:url(#SVGID_24_);}
	.st25{fill:url(#SVGID_25_);}
	.st26{fill:url(#SVGID_26_);}
</style>
<g id="ShoSho_16_">
	<g>
		<path d="M220.2,455.5l-3.8-0.2c-9.4-0.5-16.2-2.4-23.5-4.4c-2-0.6-4.2-1.1-6.3-1.7c-1.6-0.4-3.1-0.8-4.5-1.1
			c-8.1-1.9-13-3-18-10.3c-1-1.5-1.9-3.2-2.6-4.8c-1.6-3.3-3.2-6.5-6.3-8l-0.3-0.2l-0.1-0.4c-0.4-1-0.8-2-1.2-2.9
			c-2.4-6.2-4.9-12.5-9.5-16.4l-0.3-0.3l0-0.4c-0.1-1.7-0.3-3.2-0.8-4.6c-1.1,7,0,13.7,1.3,21.2c0.8,4.5,1.6,9.2,2,14.5l0.1,1.9
			l-1.6-1c-4.5-2.6-9.1-4.8-13.5-6.8c-6.3-2.9-12.2-5.6-17.8-9.7l-0.2-0.2l-0.1-0.3c-4.9-11.8-11-30.6-12.9-46.1
			c-3.3,6.4-4,15.3-4.7,23.4c-0.2,2.7-0.4,5.3-0.8,7.7l-0.2,1.4l-1.2-0.6c-8.8-4-15.3-10.4-21.6-16.6c-3.6-3.6-7.4-7.3-11.5-10.4
			l-0.3-0.2l-0.1-0.3c-3.7-14.1,2-31.8,6.5-42.7c-3.4,2.1-6.4,4.2-9.7,8c-1.4,1.6-2.6,3.8-3.8,5.9c-2.3,4-4.4,7.8-7.6,7.9
			c0,0-0.1,0-0.1,0c-2.1,0-4.2-1.6-6.5-5.1l-1-1.5c-5.7-8.5-10.1-15.2-14.4-23.9c-0.6-1.1-0.9-2.4-1.2-3.7c-0.4-1.5-0.7-3.1-1.5-4.5
			c-0.9-1.6-8.9-15.4-8.4-22c0.2-2.2,1.4-4.1,2.5-5.8c0.6-0.9,1.2-1.8,1.4-2.6c5.1-14.1,12.2-26.7,22.9-40.5
			c-11.8,4-20.6,11.3-29.2,18.3c-1,0.8-2,1.7-3.1,2.5L5.5,269L5,267.7c-6.3-15.9-5.5-35.5-3.9-55.8c0.1-1.1,0.2-2.2,0.2-3.3
			c0.9-13.1,2-27.9,11.7-35.3c14.4-11,30.6-21.5,42.6-28.9c-9.9,0.3-18.8,3.6-28.2,7c-3.6,1.3-7.4,2.7-11.3,3.9l-1.9,0.6l0.6-1.9
			c10.9-32.3,30-56.4,49-77.7l0.3-0.3l0.4,0c8.9-1.1,19.5-1.7,29.8-2.2c8-0.5,16.3-0.9,23.4-1.6l0.4,0l0.3,0.2
			c0.9,0.7,2.6,1.5,4.4,1.5c0,0,0,0,0,0c-8.9-5-19-7.5-29.6-10.1c-2.8-0.7-5.7-1.4-8.6-2.2L83,61.2l1.2-1.2
			c17-17.6,40.6-28.8,63.5-39.7c3-1.4,6.1-2.9,9.1-4.4l0.3-0.1l0.3,0c22.3,3.3,43.3,9.3,67.6,19.3c-6.5-6.9-15.1-11.8-23.5-16.7
			c-4.9-2.8-10-5.8-14.7-9l-1.7-1.2l2.1-0.5c38.6-10.1,93.3-10.1,129.9,0l2,0.6l-1.7,1.2c-4.6,3.4-9.6,6.4-14.5,9.3
			c-7.4,4.5-15,9.1-21.2,14.9c6.4-1.7,13-4.1,19.8-6.7c7.7-2.9,15.7-5.8,23.8-7.8l0.9-0.2l0.2,0.7c0.2,0,0.5,0,0.7,0
			c0.5,0,1.2,0,1.8,0.3c0-0.1,0.1-0.2,0.1-0.4c0.1-0.4,0.3-0.7,0.6-1.1l0.2-0.3l0.4-0.1c14.3-2.7,23.7,1.5,36.8,7.2
			c19.8,8.7,39.2,21.7,51.9,34.8l1.2,1.2l-4.2,1.1c-11.4,2.9-23.1,5.9-32.8,10.7c18.7,0.6,35,1.3,54.4,3.2l0.4,0l0.3,0.3
			c23.8,23.5,40.9,50.4,49.6,77.7l0.6,1.8l-1.8-0.6c-3.8-1.2-7.3-2.4-10.7-3.6c-8.2-2.9-16-5.7-26.2-6.9c5.1,3.9,10.4,7.7,16,11.6
			c6.9,4.8,14,9.8,20.8,15.4c1.1,0.9,2.5,1.8,3.8,2.8c2.3,1.6,4.5,3.1,5.6,4.5c2.6,3.3,4.5,12.7,5.7,28c1.4,18-0.2,42.5-3.9,61.1
			l-0.3,1.5l-1.2-0.8c-3.5-2.3-6.8-4.9-10-7.5c-6.5-5.2-13.3-10.5-22.1-13.5c10.2,15,19.2,31.5,25.9,47.7l0.1,0.3l-0.1,0.3
			c-3.2,13.5-7.7,23.8-13.8,31.5c-5.4,12.9-12,22.8-19.9,30.4l-0.8,0.8l-0.8-1.2c-5.5-8-11.2-16.2-18.8-22.4c0.3,4.4,2,9.1,3.7,14.1
			c3,8.4,6.1,17.1,3.3,25.8c-1,3.3-4.8,6.2-8.8,9.3c-2,1.6-4.2,3.2-5.7,4.8c-5.7,5.9-13.2,13.1-20.6,16.6l-1.3,0.6l-0.2-1.4
			c-0.3-3-0.6-6-0.8-8.9c-0.6-7.9-1.2-15.4-3.6-22.1c-1.6,5.3-2.9,10.9-4.2,16.4c-2.4,10-4.9,20.3-8.7,29.2l-0.1,0.3l-0.3,0.2
			c-2.7,1.4-5.5,2.9-8.3,4.5c-7.7,4.4-15.7,8.9-24.3,10.3l-1.4,0.2l0.9-5c1.9-10.9,3.5-20.5,3.7-30.2c-0.7,1.3-1.5,2.6-2.2,4
			c-6.4,11.4-13.6,24.3-21.2,34.5c-5,6.8-6.1,7-15.6,9.6l-0.3,0.1c-2.3,0.6-4.6,1.3-6.9,2c-8.5,2.5-17.4,5.2-26.3,4.6l-1.4-0.1
			l0.6-1.3c1.4-3.2,3.5-3.9,5.3-4.5c0.8-0.3,1.5-0.5,2.2-0.9c14.1-9.2,30.2-25.6,26.4-51.7c-0.3-2-0.6-4.2-0.9-6.7
			c-1-7.8-2.3-17.6-4-23.9c-0.3-1.1-0.7-2-1.1-2.9c-0.7-1.5-1.3-2.9-1.1-4.6c0.4-3.4,3.6-7.3,6.4-10.8c1.5-1.8,2.8-3.5,3.6-4.9
			c1.4-2.5,2.7-5.5,4.1-8.6c1.8-4,3.6-8.1,5.8-11.7c1.8-2.9,4.6-6.8,8.5-7.3c2.3-0.3,4.7,0.6,7.3,2.7c1.9-6.8,2-16.1,2.1-25.9
			c0-2.7,0-5.3,0.1-8l0-1.3l1.2,0.3c2.5,0.7,4.7,1.7,6.7,2.7c2,1,3.9,1.9,6.1,2.5c3-10,4.3-21.6,5.2-30.7l0.1-1.3l1.2,0.5
			c2.3,0.9,4.4,2,6.5,3.1c1.7,0.9,3.4,1.8,5.3,2.6c2.1-4.8,2.3-10.7,2.5-16.5c0.1-3.5,0.3-7.1,0.8-10.4l0.2-1.1l1.1,0.3
			c4.2,1.1,7.8,2.9,11.1,4.6c-1.1-7.4-3.1-14.4-5.1-21.2c-2.2-7.6-4.3-14.8-5.1-22.3l-0.1-1.3l1.2,0.2c3.7,0.5,6.4,1.9,9,3.3
			c0.4,0.2,0.8,0.5,1.3,0.7c-9.1-27-23.8-54-60.8-54.6c-24.5-0.4-38.6-8.7-43.2-25.4l-0.2-0.8l0.7-0.4c3.3-1.7,6.1-4,8.9-6.2
			c6.4-5.2,13-10.5,25.2-9.2l1.2,0.1l-0.3,1.1c-1.4,4.7-5,7-8.5,9.2c-2.1,1.3-4.1,2.6-5.6,4.2c4,1,8.1,0.8,12,0.5
			c3.3-0.2,6.5-0.4,9.5,0.1c9.9,1.7,18.2,8.9,25.4,15.2c1.2,1.1,2.4,2.1,3.6,3.1c5.8,5,11,9.9,16.1,14.7c0.9,0.9,1.8,1.8,2.8,2.6
			c-7.1-47.4-57.7-66.5-87.7-73.7c-7.5-1.8-16.6,1.4-26.2,4.7c-7.8,2.7-15.8,5.5-23.4,5.7l-0.2,0l-0.2-0.1
			c-3.5-1.7-17.8-7.1-26.1-9.3c-15.5-4-27.1,0.8-40.5,6.4c-1.4,0.6-2.9,1.2-4.3,1.8c-14.7,5.9-28.7,12.1-39.1,22.8
			c-8.4,8.5-18.4,27.2-20.4,42.1c1.2-0.3,1.9-1.5,2.8-3.2c0.5-1,1.1-2.1,1.9-2.9c6.8-7.5,18.3-16.6,29.3-23.2
			c1.2-0.7,2.3-1.5,3.4-2.2c3-2.1,5.9-4.1,9.7-4.5c3-0.3,6.3-0.1,9.9,0.1c4.7,0.3,9.6,0.5,14-0.3c-1.4-2.3-3.9-3.7-6.6-5.1
			c-3.4-1.8-6.8-3.6-8.2-7.6l-0.3-1l1-0.3c9.7-3.2,17.5,2.3,25,7.6l1.1,0.8c0.1,0.1,7.8,5.7,8.1,8.4c0.3,2.3-1.1,4-2.4,5.5
			c-1.1,1.3-2.1,2.4-2,3.9l0,0.4l-0.3,0.3c-7.6,8.4-20.5,13.4-36.3,14c-24.7,1.1-41.7,10.8-55,31.7c-0.7,4.6-2.7,8.6-4.8,12.8
			c-1.5,3.1-3.1,6.3-4.1,9.8c1.8-0.4,3.2-1.3,4.6-2.2c1.7-1.1,3.4-2.2,6-2.6l1.3-0.2l-0.2,1.3c-1.1,8.4-3.6,17-6.1,25.3
			c-1.9,6.2-3.8,12.7-5.1,19.1c2.4-0.1,3.6-1.1,4.9-2.1c1.4-1.2,3.1-2.5,6.4-2.8l1-0.1l0.1,1c0.8,6.1,1.2,12.7,1.7,19.7
			c0.1,2.4,0.3,4.9,0.5,7.3c3-0.4,5.1-1.5,7.4-2.8c0.9-0.5,1.8-1,2.8-1.4l0.6-0.3l0.5,0.5c4.2,3.9,4.9,11.6,5.6,19.1
			c0.4,3.9,0.7,7.9,1.6,11.3c3.5-0.6,6.2-2.1,8.9-3.6c1-0.5,2-1.1,3-1.6l1.1-0.5l0.3,1.2c1.6,5.8,1.9,13,2.1,19.9
			c0.2,4.8,0.4,9.7,1,14.1c1.2-0.4,2.3-0.9,3.3-1.3c4.8-2,7.5-2.8,11.1,4.4c2.2,4.4,5.9,10.1,9.8,16c4.3,6.5,8.7,13.3,11.1,18.5
			c1.7,3.6,0.9,5.3,0,7.4c-0.4,0.8-0.7,1.6-1,2.7c-2.9,10.2-6.2,24.8-6,36.4c0.6,27.6,14.3,38.4,35.2,51.8L220.2,455.5z
			 M156.4,423.5c3.5,1.9,5.2,5.4,6.9,8.8c0.8,1.6,1.6,3.2,2.5,4.5c4.6,6.6,8.7,7.6,16.8,9.5c1.4,0.3,2.9,0.7,4.6,1.1
			c2.2,0.6,4.3,1.1,6.4,1.7c6.1,1.7,11.8,3.3,19.1,4c-19.6-12.8-32.2-24.3-32.8-51.3c-0.3-11.8,3.2-26.7,6.1-37
			c0.3-1.2,0.8-2.1,1.1-2.9c0.9-1.9,1.3-2.9,0-5.7c-2.4-5.1-6.7-11.8-11-18.3c-3.9-6-7.6-11.7-9.9-16.2c-2.9-5.8-4.2-5.2-8.5-3.4
			c-1.3,0.6-2.8,1.2-4.6,1.7l-1.1,0.3l-0.2-1.1c-0.8-4.8-1-10.3-1.2-15.5c-0.2-6.3-0.5-12.9-1.8-18.3c-0.6,0.3-1.2,0.7-1.8,1
			c-3,1.7-6.2,3.5-10.5,4l-0.8,0.1l-0.2-0.8c-1.1-3.7-1.5-8.2-1.9-12.5c-0.6-6.8-1.3-13.7-4.5-17.3c-0.7,0.3-1.4,0.7-2,1.1
			c-2.6,1.4-5.3,2.9-9.2,3.1l-1,0.1l-0.1-1c-0.2-2.8-0.4-5.6-0.5-8.4c-0.4-6.6-0.8-12.8-1.5-18.5c-2.1,0.4-3.2,1.3-4.4,2.3
			c-1.7,1.4-3.4,2.8-7.4,2.6l-1.2-0.1l0.2-1.1c1.4-7,3.4-13.8,5.4-20.5c2.4-8.1,4.7-15.8,5.9-23.5c-1.4,0.4-2.6,1.2-3.8,2
			c-1.9,1.2-3.9,2.5-7,2.7l-1.4,0.1l0.3-1.3c1.1-4.3,2.9-8,4.7-11.6c2-4.1,3.9-8.1,4.6-12.4l0-0.2l0.1-0.2
			c13.7-21.6,31.2-31.7,56.7-32.8c15.2-0.6,27.5-5.3,34.7-13.1c0.1-2.1,1.3-3.6,2.5-4.9c1.1-1.3,2.1-2.4,1.9-3.9
			c-0.1-1-4.3-4.9-7.3-7l-1.1-0.8c-7.2-5-14-9.8-22.2-7.6c1.4,2.6,4,4.1,6.9,5.5c3.2,1.7,6.6,3.4,8.1,7.2l0.4,1.1l-1.1,0.3
			c-5,1.3-10.5,1-15.8,0.7c-3.5-0.2-6.7-0.4-9.6-0.1c-3.3,0.3-5.9,2.2-8.7,4.1c-1.1,0.8-2.3,1.6-3.5,2.3
			c-10.8,6.5-22.1,15.5-28.8,22.8c-0.6,0.7-1.1,1.6-1.6,2.5c-1.2,2.2-2.4,4.6-5.8,4.4l-1-0.1l0.1-1c1.7-15.4,12.3-35.4,21.1-44.5
			c10.7-10.9,24.9-17.2,39.8-23.3c1.5-0.6,2.9-1.2,4.3-1.8c13.8-5.7,25.7-10.6,41.8-6.5c8.3,2.1,22.4,7.5,26.3,9.3
			c7.2-0.3,15-3,22.6-5.6c9.9-3.4,19.3-6.7,27.4-4.8c31,7.5,84,27.5,89.6,78.2l0.3,2.7l-2-1.9c-1.6-1.5-3.2-3-4.8-4.5
			c-5-4.8-10.2-9.7-16-14.6c-1.2-1-2.4-2-3.6-3.1c-7.1-6.2-15.1-13.2-24.5-14.8c-2.8-0.5-5.8-0.3-9-0.1c-4.6,0.3-9.4,0.6-14.1-1
			l-1.2-0.4l0.7-1.1c1.8-2.6,4.4-4.3,7-5.9c3-1.9,5.9-3.7,7.3-6.9c-10.5-0.7-16.3,4-22.4,8.9c-2.6,2.1-5.4,4.3-8.5,6.1
			c4.5,15.2,17.9,22.8,41.1,23.2c39.3,0.7,54.1,29.8,63.4,58.3l0.7,2.1l-2-0.9c-1.2-0.5-2.4-1.2-3.5-1.8c-2.2-1.2-4.3-2.3-7-2.9
			c0.8,6.9,2.8,13.6,4.9,20.7c2.2,7.5,4.4,15.2,5.4,23.5l0.2,1.9l-1.7-0.9c-3.4-1.9-7.1-3.8-11.3-5.1c-0.4,2.9-0.5,6-0.6,9
			c-0.2,6.3-0.5,12.8-3.2,18.1l-0.4,0.8l-0.8-0.3c-2.3-0.9-4.4-2-6.4-3.1c-1.6-0.9-3.3-1.7-5-2.5c-0.9,9.2-2.3,20.8-5.4,30.7
			l-0.3,0.9l-0.9-0.2c-2.9-0.6-5.2-1.8-7.4-2.9c-1.7-0.8-3.3-1.6-5.1-2.2c0,2.2-0.1,4.5-0.1,6.7c-0.1,10.7-0.2,20.8-2.7,28l-0.5,1.5
			l-1.1-1.1c-2.5-2.4-4.8-3.5-6.8-3.2c-2.3,0.3-4.5,2.3-7,6.3c-2.1,3.5-3.9,7.5-5.7,11.5c-1.4,3.2-2.7,6.2-4.2,8.8
			c-0.9,1.5-2.3,3.3-3.8,5.2c-2.6,3.3-5.6,7-5.9,9.8c-0.1,1.1,0.3,2.2,0.9,3.5c0.4,0.9,0.9,2,1.2,3.3c1.7,6.5,3,16.3,4.1,24.2
			c0.3,2.4,0.6,4.7,0.9,6.7c3.9,27.1-12.7,44.1-27.3,53.6c-0.9,0.6-1.8,0.9-2.6,1.1c-1.3,0.4-2.4,0.8-3.4,2c8.1,0.2,16.2-2.3,24-4.6
			c2.3-0.7,4.7-1.4,7-2l0.3-0.1c9.4-2.5,9.9-2.7,14.6-8.9c7.5-10.1,14.7-22.9,21-34.2c1.4-2.5,2.8-5,4.1-7.3l1.8-3.2l0.1,3.7
			c0.2,11.2-1.7,22-3.8,34.4l-0.4,2.2c7.7-1.7,15.1-5.8,22.2-9.8c2.7-1.5,5.4-3.1,8.1-4.4c3.6-8.7,6.1-18.8,8.4-28.6
			c1.6-6.4,3.2-13.1,5.1-19.3l0.8-2.6l1.1,2.5c3.3,7.6,4,16.3,4.8,25.4c0.2,2.4,0.4,4.9,0.6,7.4c6.7-3.6,13.5-10.2,18.7-15.6
			c1.7-1.7,3.8-3.4,5.9-5c3.6-2.8,7.2-5.6,8.1-8.3c2.5-8-0.4-16.4-3.3-24.5c-2.1-6-4.1-11.6-3.9-16.9l0.1-1.9l1.5,1.1
			c8.4,6.2,14.5,14.9,20.4,23.4c7.4-7.3,13.5-16.8,18.7-29l0.1-0.2c5.9-7.4,10.3-17.4,13.4-30.5c-7-16.9-16.4-33.9-27.2-49.4
			l-1.6-2.2l2.6,0.7c10.6,2.9,18.2,8.9,25.6,14.7c2.8,2.2,5.6,4.4,8.6,6.5c3.4-18.2,4.9-41.8,3.5-59.1c-1.1-14.5-3-24-5.3-26.9
			c-1-1.2-3.1-2.7-5.2-4.1c-1.4-0.9-2.8-1.9-4-2.9c-6.8-5.5-13.9-10.5-20.7-15.3c-6.6-4.6-12.8-9-18.8-13.8l-2.5-2.1l3.3,0.3
			c12.1,1.1,20.9,4.1,30.1,7.4c2.8,1,5.7,2,8.8,3c-8.7-26.3-25.4-52.1-48.2-74.8c-20.5-2-37.5-2.6-57.7-3.3l-3.6-0.1l3.1-1.8
			c10.6-5.9,23.8-9.3,36.7-12.6l0.8-0.2c-12.5-12.5-31.1-24.8-50-33.1c-13-5.7-21.7-9.5-35.1-7.1c0,0.1-0.1,0.2-0.1,0.3
			c-0.3,0.7-0.7,1.8-2,2l-0.9,0.1l-0.1-0.7c-0.2,0-0.5,0-0.7,0c-0.6,0-1.4,0-2-0.4c-7.9,1.9-15.6,4.8-23,7.6
			c-7.1,2.7-13.9,5.2-20.6,6.9c-0.2,1.2-0.9,1.9-1.7,2.2c-1.1,0.3-2.3-0.2-2.9-1.4l-0.3-0.6l0.5-0.5c6.9-7.5,15.9-13,24.7-18.3
			c4.2-2.6,8.6-5.2,12.6-8c-35.6-9.3-87.2-9.3-124.7,0c4.1,2.7,8.4,5.3,12.7,7.7c9.8,5.6,19.9,11.4,26.8,20.3l2.4,3l-3.5-1.5
			c-25.7-10.8-47.5-17.2-70.7-20.7c-2.9,1.4-5.9,2.8-8.8,4.2c-22.2,10.6-45.1,21.5-61.8,38.1c2.3,0.6,4.7,1.2,6.9,1.8
			c11.6,2.9,22.6,5.6,32.3,11.6l1.5,0.9l-1.6,0.8c-2.9,1.5-6.3,0.4-8.4-1c-7.1,0.7-15.2,1.1-23.1,1.6c-10.1,0.6-20.5,1.2-29.3,2.2
			c-18.4,20.6-36.8,44-47.7,74.8c3.2-1,6.3-2.2,9.3-3.3c10.7-3.9,20.7-7.6,32.5-7.1l3.3,0.1l-2.8,1.7C47.6,151.7,29.9,163,14.3,175
			c-8.9,6.8-9.9,20.6-10.9,33.9c-0.1,1.1-0.2,2.2-0.2,3.3c-1.5,19.6-2.4,38.4,3.3,53.7c0.7-0.5,1.3-1.1,2-1.6
			c9.4-7.8,19.2-15.8,33-19.6l3-0.8l-1.9,2.4c-11.7,14.7-19.2,27.8-24.5,42.5c-0.4,1-1,2-1.6,3c-1,1.6-2,3.2-2.2,4.9
			c-0.4,4.8,5.1,15.7,8.1,20.8c0.9,1.6,1.4,3.4,1.8,5c0.3,1.2,0.6,2.4,1,3.3c4.3,8.6,8.7,15.2,14.3,23.6l1,1.5
			c1.9,2.8,3.6,4.3,4.9,4.2c2.1-0.1,4-3.5,5.9-6.9c1.2-2.2,2.5-4.4,4-6.2c4-4.6,7.6-6.8,11.8-9.4l3.8-2.3l-1.3,3
			c-4.5,10.1-11.4,29.1-7.7,44c4.1,3.2,7.8,6.8,11.4,10.4C79,393.1,85,399,92.9,402.9c0.2-2,0.4-4,0.6-6.2c0.8-9.4,1.7-20,6.6-26.8
			l1.6-2.2l0.2,2.7c1.5,15.7,7.9,35.8,13,48.2c5.4,3.9,11.2,6.5,17.3,9.3c3.9,1.8,8,3.7,12,5.9c-0.4-4.4-1.1-8.5-1.8-12.4
			c-1.5-8.8-2.8-16.4-0.7-24.9l0.6-2.3l1.2,2c1.4,2.2,2.1,4.8,2.3,7.7c4.8,4.2,7.3,10.7,9.8,16.9
			C155.8,421.8,156.1,422.6,156.4,423.5z M279.6,35.7c-0.1,0.1-0.2,0.2-0.3,0.3c0,0,0,0,0,0C279.4,35.9,279.5,35.8,279.6,35.7z"/>
	</g>
	<g>
		<path d="M254.8,409.9c-2.1,0-4.2,0-6-0.1c-8.7-0.3-22-1.3-33-3.3c-17.3-3.2-23.1-13-20-34c0.3-1.7,0.8-3.6,1.3-5.3
			c0.6-2.2,1.3-4.5,1.5-6.7c0.1-1.5,0-3.2-0.1-5c-0.1-2.2-0.2-4.5,0.1-6.5c0.3-1.8,0.8-3.3,1.2-4.6c0.6-1.9,1.2-3.6,1-5.6
			c-0.3-3.4-2.1-7.4-3.9-11.6c-1.1-2.6-2.3-5.3-3.2-7.9c-2.9-8.8-5.9-17.4-8.7-25.7c-7.3-21.3-14.2-41.3-20.4-64.3l0-0.2l0-0.2
			c1.1-14.8,14.4-19.2,28.5-23.9c4-1.3,8.2-2.7,12.2-4.4c3.8-1.6,7.8-3,12.1-4.4c8.5-2.9,17.3-5.9,24-10.5c0-1.9,0.1-3.4,0.3-4.7
			c0.2-2.2,0.4-4-0.1-6.5c-5-0.8-9.6-3-14.1-5.2c-5.1-2.5-9.9-4.8-15.3-5.2c-6.1-0.4-11,2.1-16.2,4.8c-4.1,2.1-8.2,4.3-13.2,5.1
			l-1.3,0.2l0.2-1.3c1.5-12.1,11.8-18.3,22.6-24.9l0.9-0.5c0.6-0.4,1.3-0.8,2-1.2c4.8-3,11.4-7,15.4-7.7c6.5-1.1,12.9,0.4,19,1.9
			c4.6,1.1,8.9,2.1,12.9,2c3.9-0.2,7.9-1.2,11.8-2.1c7-1.7,14.2-3.5,21-0.5c13,5.8,25.7,17.2,35.4,26.5l0.3,0.3l0,0.4c0,2,0,4,0,6
			v1.2l-1.2-0.2c-4.2-0.7-8.1-2.6-11.9-4.5c-5.3-2.6-10.9-5.3-17.4-4.8c-7,0.5-13.5,3.8-19.7,7c-3.1,1.6-6.1,3.1-9.1,4.3
			c-1.7,8.6,3,14.2,14.8,17.5l1.1,0.3c6.2,1.8,13.3,3.7,20.9,6.9c2.8,1.2,6,2.2,9.4,3.3c15.3,5.1,34.4,11.4,28.5,33
			c-0.5,1.8-1.3,3.8-2,5.8c-0.5,1.2-0.9,2.4-1.3,3.6c-3.5,10.5-7.2,21-10.8,31.2c-3.8,11-7.8,22.4-11.7,34
			c-1.2,3.7-2.9,7.5-4.6,11.1c-2.5,5.6-4.9,10.8-5.3,15c-0.2,2.6,0.2,5.9,0.5,9.2c0.2,1.8,0.4,3.7,0.6,5.5c0.3,4.6,1,9.4,1.6,14
			c2.5,17.6,4.8,34.2-12.7,39.1C279.7,409,265.8,409.9,254.8,409.9z M166.5,228.9c6.1,22.8,13,42.8,20.3,64
			c2.9,8.3,5.8,16.9,8.7,25.7c0.8,2.5,2,5.2,3.1,7.7c1.9,4.4,3.7,8.6,4.1,12.2c0.2,2.4-0.4,4.3-1.1,6.4c-0.4,1.3-0.9,2.7-1.1,4.3
			c-0.3,1.8-0.2,4,0,6.1c0.1,1.8,0.2,3.6,0.1,5.3c-0.2,2.4-0.9,4.7-1.5,7c-0.5,1.8-1,3.5-1.2,5.1c-2.9,19.9,2.2,28.8,18.4,31.8
			c11,2,24.1,3,32.7,3.3c11.4,0.4,28.1-0.1,43-4.3c15.8-4.5,13.7-19.5,11.3-36.9c-0.7-4.7-1.3-9.5-1.6-14.1
			c-0.1-1.7-0.3-3.6-0.5-5.4c-0.4-3.3-0.8-6.8-0.5-9.6c0.4-4.5,2.8-9.9,5.4-15.6c1.6-3.6,3.3-7.3,4.5-10.9c3.9-11.6,7.9-23,11.7-34
			c3.5-10.2,7.2-20.7,10.8-31.2c0.4-1.2,0.9-2.4,1.3-3.6c0.7-1.9,1.5-3.9,1.9-5.6c5.4-19.7-11.9-25.5-27.2-30.5
			c-3.4-1.1-6.6-2.2-9.5-3.4c-7.5-3.1-14.5-5-20.7-6.8l-1.1-0.3c-4.8-1.4-19.4-5.5-16.1-20.4l0.1-0.5l0.5-0.2
			c3.1-1.2,6.2-2.7,9.4-4.4c6.4-3.3,13-6.7,20.5-7.2c7.1-0.5,12.9,2.3,18.5,5c3.4,1.7,6.7,3.3,10.2,4.1c0-1.5,0-2.9,0-4.4
			c-9.5-9.1-21.9-20.2-34.5-25.8c-6.2-2.7-12.7-1.1-19.7,0.6c-4,1-8.1,2-12.2,2.2c-4.3,0.2-8.8-0.9-13.5-2
			c-5.9-1.4-12.1-2.9-18.2-1.8c-3.5,0.6-10,4.6-14.7,7.4c-0.7,0.4-1.4,0.8-2,1.2l-0.9,0.5c-10,6-19.5,11.7-21.4,22
			c4-0.9,7.7-2.8,11.2-4.6c5.2-2.7,10.6-5.5,17.3-5c5.8,0.4,11,2.9,16,5.3c4.5,2.2,9.2,4.4,14.2,5.1l0.7,0.1l0.2,0.7
			c0.7,3.2,0.5,5.3,0.3,7.8c-0.1,1.5-0.3,3-0.3,5l0,0.5l-0.4,0.3c-7,4.9-16.1,8.1-25,11.1c-4.2,1.5-8.2,2.8-12,4.4
			c-4.1,1.7-8.2,3.1-12.3,4.4C179.7,211.5,167.6,215.5,166.5,228.9z M281,397c-1.3,0-2.7-0.3-4.1-1c-2.6-1.2-4.9-4.1-6-7.6
			c-1.1-3.4-0.8-6.8,0.6-9.1c0.8-1.3,2-2.3,3.3-3.4c1.2-1,2.5-2,3.3-3.2c2-3.1,3.8-6.8,5.5-10.3c1.8-3.8,3.7-7.7,6-11.1l0.2-0.3
			l0.4-0.1c1.5-0.3,2.3,0.3,2.9,0.7c0.4,0.3,0.6,0.4,1.1,0.4l1.3-0.1l-0.3,1.3c-0.8,3.8-0.5,7.6-0.2,11.6c0.2,2.6,0.4,5.3,0.2,8
			c-0.3,7.2-3.7,19.2-10,23C284,396.6,282.5,397,281,397z M291.1,352.8c-2.1,3.1-3.9,6.9-5.6,10.5c-1.7,3.6-3.5,7.3-5.6,10.5
			c-1,1.5-2.3,2.6-3.7,3.7c-1.2,1-2.3,1.9-2.9,2.9c-1.1,1.8-1.3,4.7-0.4,7.5c0.9,3,2.8,5.5,4.9,6.4c2.4,1.1,4.5,1,6.6-0.2
			c5.6-3.4,8.7-14.8,9-21.4c0.1-2.6-0.1-5.2-0.2-7.8c-0.3-3.6-0.5-7.3,0.1-11c-0.5-0.2-0.8-0.4-1.1-0.6
			C291.7,352.9,291.5,352.8,291.1,352.8C291.1,352.8,291.1,352.8,291.1,352.8z M221,396.8c-0.6,0-1.2,0-1.9-0.1l-0.4-0.1l-0.3-0.3
			c-8.7-11.5-11.6-27.8-7.9-44.7l0.2-0.8h2.1l0.2,0.1c3.3,1.8,4.7,5.2,6.3,9.1c0.9,2.3,1.9,4.7,3.4,7.1c1.3,2.1,3.3,4.2,5.2,6.3
			c3.1,3.3,6,6.4,6.4,9.5c0.4,3.2-1.1,7-3.8,9.8C228,395.4,224.6,396.8,221,396.8z M219.8,394.7c4.8,0.5,8-1.9,9.5-3.4
			c2.3-2.3,3.6-5.5,3.3-8.1c-0.3-2.4-3.2-5.4-5.9-8.3c-2-2.2-4.1-4.4-5.5-6.6c-1.6-2.5-2.6-5.1-3.5-7.4c-1.5-3.6-2.6-6.5-5.2-8h0
			C209,368.7,211.7,383.9,219.8,394.7z M253,355.6c-0.9,0-1.7,0-2.6-0.1c-17.7-0.9-43.4-11.7-43.7-28.9c-0.1-5.2,1.9-11,3.8-16.6
			c1.1-3.1,2.2-6.4,2.8-9.4c0.7-3.1,1.2-6.1,1.7-9.1c1.1-6.1,2.1-11.8,4.3-17.4l0.3-0.8l0.8,0.2c3.8,0.8,7.9,1.6,12.4,2.4
			c7.2,1.3,14.7,2.7,21.4,4.6c5.6-2,13-3.3,20.9-4.7c3.2-0.6,6.5-1.2,9.7-1.8l0.9-0.2l0.3,0.9c6.1,19.3,9.4,33.5,9.9,42.3
			c3,7.2,2.2,14.3-2.3,20.7C286.3,348.2,269.2,355.6,253,355.6z M220.9,275.7c-2,5.1-2.9,10.5-3.9,16.2c-0.5,3-1.1,6.1-1.8,9.2
			c-0.7,3.1-1.8,6.4-2.9,9.6c-1.8,5.4-3.8,11.1-3.7,16c0.3,16,24.9,26.1,41.8,27c16.2,0.8,34.1-6.5,41.4-17c4.1-5.9,4.8-12.3,2-18.9
			l-0.1-0.2l0-0.2c-0.4-8.5-3.7-22.3-9.6-41.1c-2.9,0.6-5.9,1.1-8.8,1.6c-7.9,1.4-15.4,2.7-20.9,4.8l-0.3,0.1l-0.3-0.1
			c-6.6-1.9-14.2-3.3-21.5-4.7C228.4,277.2,224.5,276.5,220.9,275.7z M305.5,286.4l-0.1-1.9c-0.9-19.8-1.8-40.3-6.5-57.3l-0.2-0.6
			l0.4-0.4c5.3-5.3,14.7-6.4,21.7-5.2l0.8,0.1l0,0.8c0.1,3.3,0,6.3,0,9.2c-0.1,4.9-0.2,9.1,0.5,13.2l0,0.2l-0.1,0.2
			c-1.1,3.9-2,8.1-2.9,12.2c-2.5,11.6-4.9,22.6-12.2,28.3L305.5,286.4z M301,227.1c4.5,16.5,5.5,36.1,6.4,55.1
			c5.6-5.6,7.7-15.4,10-25.8c0.9-4,1.8-8.2,2.9-12.1c-0.7-4.2-0.6-8.7-0.5-13.3c0-2.6,0.1-5.3,0-8.2
			C313.7,221.9,305.6,222.9,301,227.1z M197.7,286c-3.1,0-3.7-2.6-4.1-4.4c-0.1-0.6-0.3-1.2-0.5-1.7c-5.9-13.1-12.2-33.8-8.8-58.1
			l0.1-0.8l0.8-0.1c8.2-0.6,15.2,0.9,20.9,4.5l0.6,0.4l-0.2,0.7c-5.8,22.3-6.6,39-7.1,58.4l0,0.9l-0.8,0.1
			C198.2,286,198,286,197.7,286z M186.1,222.8c-3,23.5,3.1,43.5,8.8,56.2c0.3,0.6,0.5,1.4,0.6,2.1c0.4,1.9,0.7,2.7,1.9,2.8
			c0.5-19,1.3-35.4,7-57.2C199.4,223.7,193.2,222.4,186.1,222.8z M215.7,249.5l-0.6-0.6c-5.4-6.3-2.8-21.1-1.9-25.5l0.2-0.9l0.9,0.1
			c8.4,0.6,11,4.5,11.8,7.6c1.6,6.6-3.8,15.3-9.7,18.9L215.7,249.5z M215.1,224.6c-1.6,8-2,17.6,1.1,22.3c5-3.5,9.4-10.9,8.1-16.2
			C223.4,227.2,220.2,225.1,215.1,224.6z M291.2,249.4l-0.9-0.3c-7.5-2.2-11.7-12.1-10.3-18.7c0.6-2.7,3-8.7,12.9-7.4l0.9,0.1l0,0.9
			c-0.1,2.5-0.2,4.9-0.2,7.2c-0.1,6.3-0.2,11.8-2,17.2L291.2,249.4z M290.2,224.9c-4.5,0-7.5,2.1-8.3,6c-1.2,5.5,2.2,13.6,8,16
			c1.4-4.8,1.5-9.8,1.6-15.6c0-2,0.1-4.1,0.2-6.3C291.1,224.9,290.6,224.9,290.2,224.9z M233.9,248.3l-0.5-0.4
			c-2.3-1.9-4.2-4.3-5.8-7.5l-0.3-0.5l0.3-0.5c1.1-1.6,1.9-3.5,2.7-5.6c0.3-0.8,0.7-1.7,1-2.5l0.1-0.2l0.2-0.1
			c1.1-0.9,2.3-0.7,3.2-0.5c0.8,0.2,1.3,0.3,1.8-0.1l0.5-0.4l0.6,0.3c1.7,1,2.1,3.1,2.5,5c0.3,1.7,0.7,3.3,1.8,3.8l0.8,0.4l-0.2,0.8
			c-1.2,4.2-4.7,6.2-8.2,7.8L233.9,248.3z M229.7,240c1.3,2.4,2.7,4.4,4.5,5.9c3-1.4,5.3-2.9,6.3-5.5c-1.4-1.1-1.8-3-2.1-4.7
			c-0.3-1.3-0.5-2.6-1.2-3.3c-1,0.4-1.9,0.2-2.7,0c-0.7-0.2-1-0.2-1.3,0c-0.3,0.7-0.6,1.4-0.9,2.2
			C231.5,236.5,230.8,238.4,229.7,240z M252.4,248.1c-0.1,0-0.2,0-0.3,0l-0.4,0l-0.3-0.2c-3.4-3-5.5-5.4-3.6-11
			c0.2-0.6,0.4-1.3,0.6-1.9c0.6-2,1.1-3.8,2.7-4.7c1-0.6,2.3-0.6,4-0.1c4,1.2,5.7,6.5,5,10.8C259.5,245.4,256.5,248.1,252.4,248.1z
			 M253.1,231.9c-0.4,0-0.7,0.1-0.9,0.2c-0.8,0.5-1.2,1.8-1.7,3.5c-0.2,0.6-0.4,1.3-0.6,2c-1.5,4.2-0.4,5.8,2.7,8.5
			c4.4-0.1,5.4-3.8,5.7-5.4c0.5-3.4-0.8-7.7-3.6-8.6C254,232,253.5,231.9,253.1,231.9z M270,247.4c-0.1,0-0.2,0-0.4,0
			c-1.5-0.1-4.4-1-5.9-6.1l-0.1-0.3l0.1-0.3c0.3-0.8,0.5-1.6,0.8-2.5c1.1-3.9,2.6-8.7,9.6-7.5l0.3,0.1l0.2,0.2
			c3.1,3.2,3.8,7.5,2,11.4C275.3,245.5,272.7,247.4,270,247.4z M265.8,241.1c0.9,2.7,2.3,4.2,4,4.3c1.9,0.1,4-1.5,5.2-3.9
			c1.4-3,0.9-6.3-1.4-8.9c-5-0.8-5.9,2.3-7,6.1C266.3,239.6,266.1,240.3,265.8,241.1z"/>
	</g>
</g>
</svg>
