<?xml version="1.0" encoding="utf-8"?>
<!-- Generator: Adobe Illustrator 22.1.0, SVG Export Plug-In . SVG Version: 6.00 Build 0)  -->
<svg version="1.1" id="Layer_1" xmlns="http://www.w3.org/2000/svg" xmlns:xlink="http://www.w3.org/1999/xlink" x="0px" y="0px"
	 viewBox="0 0 500 185" style="enable-background:new 0 0 500 185;" xml:space="preserve">
<style type="text/css">
	.st0{fill:url(#SVGID_1_);}
	.st1{fill:url(#SVGID_2_);}
	.st2{fill:url(#SVGID_3_);}
	.st3{fill:#FFFFFF;}
	.st4{fill:url(#SVGID_4_);}
	.st5{fill:url(#SVGID_5_);}
</style>
<g>
	<g>
		<g>
			<path d="M146.8,143.2l-19.9-28.6c-0.8,0.1-2.1,0.1-3.8,0.1h-22v28.5H82.9V45.6h40.2c8.5,0,15.8,1.4,22.1,4.2s11.1,6.8,14.4,12
				c3.3,5.2,5,11.4,5,18.6c0,7.3-1.8,13.7-5.4,19c-3.6,5.3-8.7,9.3-15.4,11.9l22.5,32.1h-19.5V143.2z M140.2,66
				c-4.1-3.3-10.1-5-18-5H101v38.9h21.2c7.9,0,13.9-1.7,18-5.1s6.1-8.2,6.1-14.4C146.4,74.1,144.3,69.3,140.2,66z"/>
			<path d="M374.3,120.6h-48.8l-9.6,22.6h-18.7l43.9-97.7H359l44.1,97.7h-19L374.3,120.6z M368.3,106.4l-18.4-42.7l-18.3,42.7H368.3
				z"/>
			<path d="M473.8,143.2l-19.9-28.6c-0.8,0.1-2.1,0.1-3.8,0.1h-22v28.5H410V45.6h40.2c8.5,0,15.8,1.4,22.1,4.2
				c6.3,2.8,11.1,6.8,14.4,12s5,11.4,5,18.6c0,7.3-1.8,13.7-5.4,19s-8.7,9.3-15.4,11.9l22.5,32.1h-19.6V143.2z M467.2,66
				c-4.1-3.3-10.1-5-18-5H428v38.9h21.2c7.9,0,13.9-1.7,18-5.1s6.1-8.2,6.1-14.4C473.4,74.1,471.3,69.3,467.2,66z"/>
		</g>
		<g>
			
				<linearGradient id="SVGID_1_" gradientUnits="userSpaceOnUse" x1="67.0333" y1="54.2787" x2="13.1749" y2="147.5643" gradientTransform="matrix(1 0 0 -1 0 186)">
				<stop  offset="0" style="stop-color:#F8B131"/>
				<stop  offset="1" style="stop-color:#EC5965"/>
			</linearGradient>
			<path class="st0" d="M8.7,165.4c16.1-17.5,77.8-116.3,80.5-130c-15.3,23.1-30.6,46.1-46.7,70.3C40.6,85,38.8,65.5,37,46.1
				c-11,0-21.2,0-31.7,0l0,0h-5.4l6.4,9.7c3.9,29.1,7.8,58.1,11.5,87.2c0.3,2.7-0.6,5.8-1.7,8.4C13.9,156.2,11.2,160.8,8.7,165.4z"
				/>
			
				<linearGradient id="SVGID_2_" gradientUnits="userSpaceOnUse" x1="94.7774" y1="49.7183" x2="44.2226" y2="137.2817" gradientTransform="matrix(1 0 0 -1 0 186)">
				<stop  offset="0" style="stop-color:#F8B131"/>
				<stop  offset="1" style="stop-color:#EC5965"/>
			</linearGradient>
			<path class="st1" d="M12.3,183.9C53.6,124.9,91.8,64,126.7,1.1C85.3,60,47.2,120.9,12.3,183.9z"/>
			
				<linearGradient id="SVGID_3_" gradientUnits="userSpaceOnUse" x1="102.9056" y1="65.5669" x2="66.4944" y2="128.6331" gradientTransform="matrix(1 0 0 -1 0 186)">
				<stop  offset="0" style="stop-color:#F8B131"/>
				<stop  offset="1" style="stop-color:#EC5965"/>
			</linearGradient>
			<path class="st2" d="M125.5,23.3C95.2,65.8,68,109.2,43.9,154.5C57.7,140.6,124.1,33.8,125.5,23.3z"/>
		</g>
		<g>
			<path class="st3" d="M192.8,82.9l2.7-17.4l8-5.8l6.3-10.4l9.4-1.2l9.9-1.4h21.2l20.5,8.2l6,5.1l3.9,8.2l1.9,9.2
				c0,0,1.2,5.5,1.2,6.5s-1.4,18.6-1.7,19.5c-0.2,1-7,14.7-7,14.7s-6.5,7-7,8.4s-10.9,21.7-10.9,21.7l-8.1,4.1l-18.6,0.1l-9.7-4.8
				l-2.5-6.9l-25.4-27.1v-13.2l-1.1-11L192.8,82.9z"/>
			<g id="ShoSho_2_">
				
					<linearGradient id="SVGID_4_" gradientUnits="userSpaceOnUse" x1="239.5144" y1="33.485" x2="239.5144" y2="153.6003" gradientTransform="matrix(1 0 0 -1 0 186)">
					<stop  offset="0" style="stop-color:#F8B131"/>
					<stop  offset="1" style="stop-color:#EC5965"/>
				</linearGradient>
				<path class="st4" d="M257,34.4c-3.4,2.5-7.5,4.2-10.3,7.3c0.2,0.4,0.8,0.3,0.7-0.3c3.8-0.9,7.7-2.9,11.9-3.9
					c0.3-0.1,0.9-0.2,1.3-0.3c3.6-0.7,6,0.3,9.6,1.9c5,2.2,10.1,5.5,13.7,9.2c-3.7,0.9-7.4,1.8-10.3,3.5c4.8,0.2,9.7,0.3,15.4,0.9
					c5.6,5.5,10.5,12.4,13.1,20.5c-3.7-1.2-6.4-2.5-10.8-2.9c3.2,2.6,7,4.8,10.5,7.7c0.8,0.6,2,1.3,2.5,1.9c0.9,1.1,1.3,5.2,1.5,7.3
					c0.4,5.1-0.1,11.6-1,16.1c-3-2-5.3-4.7-9.3-5.8c2.7,3.9,5.3,8.4,7.3,13.2c-0.8,3.2-1.9,6.1-3.6,8.3c-1.3,3.1-3,5.9-5.2,8
					c-1.6-2.3-3.2-4.7-5.5-6.4c-0.1,3.2,3.1,7.3,1.9,11c-0.4,1.2-2.6,2.4-3.8,3.6c-1.4,1.5-3.4,3.4-5.4,4.4c-0.4-3.2-0.3-6.4-1.5-9
					c-1.3,4.2-2,8.9-3.6,12.8c-2.7,1.4-5.5,3.4-8.6,3.9c0.6-3.7,1.2-6.8,1.2-10c-2,3.5-4.2,7.8-6.7,11c-1.3,1.7-1.5,1.8-4.1,2.5
					c-2.8,0.8-5.8,1.9-8.7,1.7c0.5-1.1,1.3-0.9,1.9-1.3c4.2-2.8,8.1-7.2,7.1-13.9c-0.3-2.2-0.7-5.9-1.3-8.1
					c-0.2-0.8-0.7-1.3-0.6-1.9c0.2-1.3,2-3,2.6-4.1c0.9-1.5,1.6-3.7,2.6-5.4c1-1.6,2.2-2.7,4.1-0.9c0.8-2.3,0.6-5.9,0.7-9.4
					c1.3,0.3,2.2,1.1,3.6,1.5c0.9-2.8,1.2-6,1.5-8.4c1.2,0.4,2.1,1.1,3.3,1.6c1.1-2.1,0.6-5,1-7.4c1.3,0.3,2.3,0.9,3.3,1.5
					c-0.5-4.3-2.4-8.1-2.8-12.1c1.3,0.2,2.2,0.9,3.2,1.3c-2.6-8-6.6-15.1-16.6-15.3c-5.2-0.1-9.8-1.5-11.2-6.5
					c2.9-1.5,4.4-4.5,8.9-4.1c-0.6,2-2.9,2.2-3.9,3.8c2.1,0.7,4.2,0,6.1,0.3c3,0.5,5.4,3,7.6,4.8c2,1.7,3.8,3.5,5.5,5.1
					c-1.3-12-12.8-17.9-23.5-20.5c-3.7-0.9-8.8,2.6-13.2,2.8c-1-0.5-4.8-1.9-7-2.5c-4.6-1.2-7.9,0.5-12.1,2.2
					c-3.8,1.5-7.6,3.2-10.5,6.1c-2.3,2.4-5.1,7.7-5.5,11.6c1,0.1,1.2-1.1,1.7-1.7c1.9-2.1,5-4.5,7.7-6.1c1.1-0.7,2-1.6,3.3-1.7
					c1.9-0.2,4.5,0.4,6.7-0.1c-0.7-1.8-3.4-1.7-4.1-3.6c2.6-0.8,4.6,0.7,6.7,2.2c0.5,0.4,2,1.6,2,2c0.1,1-1.2,1.5-1.2,2.5
					c-2.1,2.3-5.6,3.5-9.4,3.6c-7.3,0.3-11.6,3.5-14.8,8.6c-0.3,2.2-1.9,4-2.5,6.4c1.4-0.1,1.9-1.1,3.2-1.3c-0.5,4-2.2,7.9-3.1,12.1
					c1.8,0.1,1.6-1.1,3.3-1.3c0.3,2.2,0.4,4.8,0.6,7.4c1.3-0.1,2.1-0.7,3.1-1.2c1.7,1.5,1.1,5.6,1.9,8.1c1.5-0.2,2.4-0.9,3.5-1.5
					c0.7,2.7,0.4,6.4,0.9,9.3c2-0.6,2.6-1.7,3.8,0.6c1.3,2.5,4.3,6.6,5.5,9.2c0.6,1.2,0,1.4-0.3,2.5c-0.8,2.8-1.7,6.7-1.6,9.7
					c0.2,7.7,4.2,10.6,9.4,13.9c-3.2-0.2-5.2-0.9-7.8-1.6c-2.9-0.7-4.3-0.8-5.8-2.9c-0.8-1.2-1.1-2.8-2.5-3.5
					c-0.8-1.9-1.4-4-2.9-5.2c0-0.8-0.3-1.5-0.6-2c-0.8,3.4,0.4,6.3,0.7,10.3c-2.9-1.7-5.7-2.5-8.3-4.4c-1.5-3.6-3.1-8.9-3.5-12.9
					c-1.6,2.2-1.5,6.2-1.9,9c-3.6-1.7-5.7-4.8-8.7-7.1c-1-3.7,0.6-8.6,2-11.9c-1.2,0.8-2.2,1.3-3.3,2.6c-1.5,1.7-2.2,5.5-4.4,2.3
					c-1.6-2.4-2.9-4.3-4.1-6.7c-0.3-0.6-0.3-1.5-0.7-2.2c-0.6-1-2.3-4.2-2.2-5.7c0.1-0.8,0.8-1.5,1-2.2c1.6-4.6,4-8.2,6.5-11.3
					c-4,1.1-6.6,3.5-9.4,5.8c-1.7-4.3-1.4-9.7-1-14.7c0.3-3.7,0.4-8,3.1-10c3.6-2.8,8-5.7,12.1-8.1c-4.1-0.2-7.6,1.7-11.5,2.9
					c2.8-8.3,7.7-14.6,12.9-20.5c4.2-0.5,9.8-0.6,14.1-1c0.5,0.3,1.3,0.7,2,0.3c-3.1-1.9-6.9-2.6-10.8-3.6c5-5.2,12.3-8.3,19.2-11.6
					c7.1,1.1,13.2,3.1,18.9,5.5c-2.7-3.5-7.3-5.1-10.9-7.7C232.8,31.8,247.2,31.7,257,34.4z"/>
				
					<linearGradient id="SVGID_5_" gradientUnits="userSpaceOnUse" x1="239.8385" y1="45.5144" x2="239.8385" y2="117.0436" gradientTransform="matrix(1 0 0 -1 0 186)">
					<stop  offset="0" style="stop-color:#F8B131"/>
					<stop  offset="1" style="stop-color:#EC5965"/>
				</linearGradient>
				<path class="st5" d="M258.3,78c-2.6-0.4-4.8-2.7-7.8-2.5c-2.9,0.2-5.4,2.1-7.8,3.1c-0.7,3.1,1.7,4.4,4.1,5.1
					c1.7,0.5,3.7,1,5.8,1.9c4.3,1.8,11.7,2.7,9.9,9.3c-0.2,0.8-0.6,1.7-0.9,2.5c-2,5.8-4,11.4-6,17.3c-0.8,2.5-2.4,5.1-2.6,7
					c-0.1,1.1,0.2,2.6,0.3,3.9c0.4,5.7,2.9,12.2-2.8,13.8c-3.6,1-7.8,1.3-11.5,1.2c-2.3-0.1-5.8-0.3-8.7-0.9
					c-4.7-0.9-5.8-3.6-5.1-8.7c0.1-1,0.6-2.1,0.7-3.2c0.1-0.9-0.1-2.1,0-3.1c0.2-1.1,0.7-1.8,0.6-2.8c-0.1-1.5-1.3-3.4-1.9-5.2
					c-2.7-8.1-5.4-15.3-7.7-23.8c0.4-4.8,5.8-5.3,10.6-7.3c3.1-1.3,7.1-2.2,9.7-4.1c0-1.4,0.3-2,0-3.3c-2.8-0.4-5.1-2.6-8-2.8
					c-3-0.2-4.9,2.2-7.8,2.6c0.4-3.2,3.2-4.8,6.1-6.5c1.3-0.8,3.4-2.1,4.5-2.3c3-0.5,5.9,1.1,8.4,1c2.9-0.1,5.9-1.9,8.6-0.7
					c3.6,1.6,7.2,4.9,9.3,7C258.3,76.9,258.3,77.5,258.3,78z M222.1,90.9c-0.8,5.5,0.4,10.9,2.3,15.3c0.3,0.6,0.1,1.6,1.2,1.5
					c0.1-5.4,0.4-9.8,1.9-15.5C226,91.1,224.3,90.8,222.1,90.9z M252.5,92.2c1.3,4.5,1.5,9.8,1.7,15.3c2.5-2,2.8-6.7,3.9-10.6
					c-0.3-1.8-0.1-3.6-0.1-6C256.3,90.6,253.9,90.9,252.5,92.2z M229.8,91.4c-0.4,1.9-0.8,5.2,0.4,6.5
					C232.7,96.4,234.7,91.7,229.8,91.4z M250,97.9c0.6-1.9,0.5-3.9,0.6-6.4C245.8,90.9,247.1,97,250,97.9z M234.6,93.5
					c-0.3,0.7-0.6,1.6-1,2.2c0.4,0.7,0.8,1.4,1.5,1.9c0.9-0.4,1.7-0.9,2-1.9c-0.8-0.4-0.4-1.9-1.2-2.3
					C235.5,93.7,235,93.2,234.6,93.5z M240.6,93.4c-1.3-0.4-1.2,0.6-1.6,1.6c-0.5,1.3,0,1.8,0.9,2.6
					C242.4,97.7,242.2,93.9,240.6,93.4z M243.2,96c1.1,3.4,4.7-0.1,2.5-2.5C243.7,93.2,243.7,94.8,243.2,96z M240.4,106.8
					c-2.8-0.8-6.4-1.3-9-1.9c-0.9,2.2-1,4.5-1.6,7c-0.5,2.2-1.8,4.7-1.7,6.8c0.1,4.4,6.7,7.2,11.3,7.4c6.3,0.3,14.3-4,11.8-9.9
					c-0.2-2.9-1.4-7.5-2.6-11.2C245.7,105.6,242.5,106,240.4,106.8z M231.1,137c2.4,0.3,4-1.9,3.8-3.3c-0.2-1.2-2.2-2.7-3.1-4.1
					c-1.1-1.7-1.2-3.5-2.5-4.2c-0.1,0-0.2,0-0.3,0C228.2,129.7,228.8,133.9,231.1,137z M250,125.4c-1.2,1.7-1.9,4-3.1,5.7
					c-0.5,0.7-1.4,1.1-1.7,1.7c-0.7,1.2,0,3.5,1.3,4.1c2.9,1.3,4.4-3.6,4.5-6c0.1-1.8-0.3-3.5,0-5.2
					C250.6,125.7,250.6,125.3,250,125.4z"/>
			</g>
		</g>
	</g>
	<g>
		<polygon points="235.3,183.7 240.4,183.7 240.4,175.6 250.6,175.6 250.6,171.5 240.4,171.5 240.4,165.7 252,165.7 252,161.6 
			235.3,161.6 		"/>
		<path d="M270,175.1c0,1-0.2,1.9-0.5,2.6c-0.3,0.7-0.8,1.2-1.4,1.5s-1.3,0.5-2,0.5c-1.1,0-1.9-0.3-2.5-1s-0.9-1.7-0.9-3.1v-8.9
			h-4.9v9.6c0,1.7,0.3,3.2,0.9,4.3s1.5,2,2.6,2.5s2.4,0.8,3.8,0.8c1.3,0,2.5-0.3,3.6-0.9c0.6-0.4,1.2-0.8,1.7-1.4v2h4.7v-17H270
			V175.1z"/>
		<path d="M290.3,180c-0.7,0-1.2-0.2-1.5-0.6c-0.4-0.4-0.6-0.9-0.6-1.7v-6.9h4.2V167h-4.2v-4.1h-4.9v4.1h-2.6v3.8h2.6v7
			c0,2,0.6,3.5,1.7,4.6c1.1,1,2.7,1.5,4.7,1.5c0.8,0,1.5-0.1,2.2-0.3s1.3-0.4,1.8-0.8l-1.3-3.5C291.7,179.8,291.1,180,290.3,180z"/>
		<path d="M311.7,175.1c0,1-0.2,1.9-0.5,2.6c-0.3,0.7-0.8,1.2-1.4,1.5s-1.3,0.5-2,0.5c-1.1,0-1.9-0.3-2.5-1s-0.9-1.7-0.9-3.1v-8.9
			h-4.9v9.6c0,1.7,0.3,3.2,0.9,4.3s1.5,2,2.6,2.5s2.4,0.8,3.8,0.8c1.3,0,2.5-0.3,3.6-0.9c0.6-0.4,1.2-0.8,1.7-1.4v2h4.7v-17h-4.9
			v8.5H311.7z"/>
		<path d="M329.1,169v-2.3h-4.7v17h4.9v-8c0-1.6,0.4-2.8,1.2-3.6c0.8-0.8,1.9-1.2,3.3-1.2c0.2,0,0.4,0,0.5,0c0.2,0,0.4,0,0.6,0v-4.5
			c-1.6,0-3,0.3-4.1,0.9C330.1,167.8,329.6,168.3,329.1,169z"/>
		<path d="M353.2,167.5c-1.3-0.7-2.8-1.1-4.5-1.1s-3.3,0.4-4.6,1.1c-1.4,0.7-2.4,1.8-3.2,3.1c-0.8,1.3-1.2,2.8-1.2,4.5
			s0.4,3.2,1.2,4.5c0.8,1.3,1.9,2.4,3.4,3.1c1.5,0.8,3.2,1.1,5.1,1.1c1.5,0,2.9-0.2,4.1-0.7s2.2-1.2,2.9-2l-2.6-2.8
			c-0.6,0.5-1.2,1-1.9,1.2c-0.7,0.3-1.5,0.4-2.4,0.4c-1,0-1.9-0.2-2.6-0.6c-0.7-0.4-1.3-0.9-1.7-1.6c-0.2-0.4-0.4-0.8-0.5-1.2h12.8
			c0-0.2,0-0.4,0.1-0.7c0-0.2,0-0.5,0-0.6c0-1.8-0.4-3.4-1.2-4.7C355.6,169.2,354.5,168.2,353.2,167.5z M346.5,170.7
			c0.6-0.4,1.4-0.6,2.2-0.6c0.8,0,1.6,0.2,2.2,0.6c0.6,0.4,1.1,0.9,1.5,1.5c0.2,0.4,0.4,0.9,0.5,1.5h-8.3c0.1-0.5,0.2-1,0.5-1.4
			C345.3,171.6,345.8,171.1,346.5,170.7z"/>
		<rect x="376.1" y="166.7" width="4.9" height="17"/>
		<path d="M378.5,158.8c-0.9,0-1.6,0.3-2.2,0.8s-0.9,1.2-0.9,2s0.3,1.4,0.9,2c0.6,0.5,1.3,0.8,2.2,0.8c0.9,0,1.7-0.3,2.2-0.8
			c0.6-0.5,0.8-1.2,0.8-2s-0.3-1.4-0.9-1.9C380.2,159.1,379.4,158.8,378.5,158.8z"/>
		<path d="M400.4,174.8c-0.6-0.3-1.3-0.6-2-0.8s-1.5-0.3-2.2-0.4c-0.7-0.1-1.4-0.2-2-0.3s-1.1-0.3-1.5-0.5s-0.6-0.5-0.6-0.9
			c0-0.5,0.3-0.8,0.8-1.1s1.3-0.4,2.4-0.4c0.8,0,1.6,0.1,2.4,0.3s1.7,0.5,2.5,1l1.6-3.5c-0.8-0.5-1.8-0.9-3-1.1
			c-1.2-0.3-2.4-0.4-3.5-0.4c-1.6,0-3.1,0.2-4.2,0.7c-1.2,0.5-2.1,1.1-2.7,1.9c-0.6,0.8-0.9,1.8-0.9,2.8s0.2,1.8,0.6,2.4
			c0.4,0.6,0.9,1.1,1.5,1.5s1.3,0.6,2,0.8s1.5,0.3,2.2,0.4c0.7,0.1,1.4,0.2,2,0.3s1.1,0.3,1.5,0.5s0.6,0.5,0.6,0.9
			c0,0.5-0.2,0.9-0.7,1.1c-0.5,0.3-1.3,0.4-2.4,0.4c-1,0-2.1-0.2-3.1-0.5c-1.1-0.3-2-0.7-2.8-1.2l-1.6,3.5c0.8,0.5,1.8,1,3.2,1.3
			c1.3,0.3,2.7,0.5,4.2,0.5c1.7,0,3.2-0.2,4.3-0.7c1.2-0.5,2.1-1.1,2.7-1.9c0.6-0.8,0.9-1.7,0.9-2.8c0-1-0.2-1.8-0.6-2.4
			S401,175.1,400.4,174.8z"/>
		<polygon points="436.3,175 425.3,161.6 421.1,161.6 421.1,183.7 426.1,183.7 426.1,170.3 437.2,183.7 441.4,183.7 441.4,161.6 
			436.3,161.6 		"/>
		<path d="M462.3,167.6c-1.4-0.7-3-1.1-4.8-1.1s-3.4,0.4-4.8,1.1s-2.5,1.8-3.3,3.1s-1.2,2.8-1.2,4.5s0.4,3.2,1.2,4.5
			c0.8,1.3,1.9,2.4,3.3,3.1c1.4,0.8,3,1.1,4.8,1.1s3.4-0.4,4.8-1.1c1.4-0.8,2.5-1.8,3.3-3.1s1.2-2.8,1.2-4.5s-0.4-3.2-1.2-4.5
			C464.8,169.3,463.7,168.3,462.3,167.6z M461.2,177.7c-0.4,0.7-0.9,1.2-1.5,1.6c-0.7,0.4-1.4,0.6-2.2,0.6c-0.8,0-1.6-0.2-2.2-0.6
			c-0.7-0.4-1.2-0.9-1.6-1.6c-0.4-0.7-0.6-1.5-0.6-2.5s0.2-1.8,0.6-2.5s0.9-1.2,1.6-1.6c0.7-0.4,1.4-0.6,2.2-0.6
			c0.8,0,1.6,0.2,2.2,0.6c0.7,0.4,1.2,0.9,1.5,1.6c0.4,0.7,0.6,1.5,0.6,2.5C461.8,176.2,461.6,177,461.2,177.7z"/>
		<polygon points="495.7,166.7 491.6,178.2 487.5,166.7 483.3,166.7 479.2,178.2 475.2,166.7 470.5,166.7 476.7,183.7 481.4,183.7 
			485.3,173.1 489.1,183.7 493.9,183.7 500,166.7 		"/>
	</g>
</g>
</svg>
